<svg width="375" height="124" viewBox="0 0 375 124" fill="none" xmlns="http://www.w3.org/2000/svg">
<g filter="url(#filter0_d_0_294)">
<path d="M0 38C0 24.1929 11.1929 13 25 13H350C363.807 13 375 24.1929 375 38V109H0V38Z" fill="#30444E"/>
</g>
<path fill-rule="evenodd" clip-rule="evenodd" d="M279.237 47.2658C278 48.5316 278 50.5688 278 54.6433V62.9034C278 63.7489 278 64.1717 278.109 64.3979C278.344 64.8835 278.893 65.1164 279.394 64.9428C279.628 64.8618 279.92 64.5629 280.504 63.965H280.504L280.504 63.9649C280.978 63.4801 281.214 63.2377 281.475 63.0419C282.022 62.6317 282.658 62.3623 283.328 62.2566C283.648 62.2061 283.982 62.2061 284.652 62.2061H289.083C292.553 62.2061 294.288 62.2061 295.456 61.2251C295.67 61.0455 295.866 60.8449 296.042 60.6261C297 59.4308 297 57.6549 297 54.1031C297 50.5512 297 48.7753 296.042 47.58C295.866 47.3612 295.67 47.1606 295.456 46.981C294.288 46 292.553 46 289.083 46H286.444C282.464 46 280.473 46 279.237 47.2658ZM282.75 55.7237C283.624 55.7237 284.333 54.9981 284.333 54.1031C284.333 53.208 283.624 52.4824 282.75 52.4824C281.876 52.4824 281.167 53.208 281.167 54.1031C281.167 54.9981 281.876 55.7237 282.75 55.7237ZM289.083 54.1031C289.083 54.9981 288.374 55.7237 287.5 55.7237C286.626 55.7237 285.917 54.9981 285.917 54.1031C285.917 53.208 286.626 52.4824 287.5 52.4824C288.374 52.4824 289.083 53.208 289.083 54.1031ZM292.25 55.7237C293.124 55.7237 293.833 54.9981 293.833 54.1031C293.833 53.208 293.124 52.4824 292.25 52.4824C291.376 52.4824 290.667 53.208 290.667 54.1031C290.667 54.9981 291.376 55.7237 292.25 55.7237Z" fill="#96A7AF"/>
<circle cx="188" cy="56" r="30" fill="#3DD598"/>
<path d="M197 61.9434V56.4339C197 54.6317 197 53.7307 196.629 52.9342C196.259 52.1378 195.561 51.5391 194.166 50.3418L193.11 49.4362C190.44 47.1454 189.105 46 187.5 46C185.895 46 184.56 47.1454 181.89 49.4362L180.834 50.3418C179.439 51.5391 178.741 52.1378 178.371 52.9342C178 53.7307 178 54.6317 178 56.4339V61.9434C178 62.8929 178 63.3676 178.161 63.7421C178.375 64.2414 178.786 64.6381 179.303 64.8449C179.691 65 180.183 65 181.167 65H181.519C182.173 65 182.5 65 182.769 64.9306C183.497 64.7421 184.066 64.1929 184.261 63.4896C184.333 63.2305 184.333 62.9147 184.333 62.283V59.9057C184.333 58.2175 185.751 56.8491 187.5 56.8491C189.249 56.8491 190.667 58.2175 190.667 59.9057V62.283C190.667 62.9147 190.667 63.2305 190.739 63.4896C190.934 64.1929 191.503 64.7421 192.231 64.9306C192.5 65 192.827 65 193.482 65H193.833C194.817 65 195.309 65 195.697 64.8449C196.214 64.6381 196.625 64.2414 196.839 63.7421C197 63.3676 197 62.8929 197 61.9434Z" fill="white"/>
<path d="M87.9995 64C70.4416 53.8917 83.1401 41.3245 87.9995 49.7882C92.8598 41.3245 105.559 53.8917 87.9995 64Z" fill="#96A7AF"/>
<defs>
<filter id="filter0_d_0_294" x="-14" y="0" width="403" height="124" filterUnits="userSpaceOnUse" color-interpolation-filters="sRGB">
<feFlood flood-opacity="0" result="BackgroundImageFix"/>
<feColorMatrix in="SourceAlpha" type="matrix" values="0 0 0 0 0 0 0 0 0 0 0 0 0 0 0 0 0 0 127 0" result="hardAlpha"/>
<feOffset dy="1"/>
<feGaussianBlur stdDeviation="7"/>
<feColorMatrix type="matrix" values="0 0 0 0 0.0980392 0 0 0 0 0.156863 0 0 0 0 0.184314 0 0 0 1 0"/>
<feBlend mode="normal" in2="BackgroundImageFix" result="effect1_dropShadow_0_294"/>
<feBlend mode="normal" in="SourceGraphic" in2="effect1_dropShadow_0_294" result="shape"/>
</filter>
</defs>
</svg>
