<svg width="91" height="180" viewBox="0 0 91 180" fill="none" xmlns="http://www.w3.org/2000/svg">
<path d="M36.7555 45.5345C36.6012 46.4651 35.6706 48.331 34.4991 50.204C33.4381 51.9003 33.1733 53.9428 32.6262 55.8929C32.0115 58.0837 32.079 60.9481 31.6909 63.3752C31.3316 65.6221 31.1437 68.1218 30.2903 70.3127C29.5425 72.2324 27.8796 74.0516 26.472 75.9245C24.806 78.1411 22.5765 80.5986 21.2507 82.5487C19.6795 84.8598 18.3676 86.678 17.119 88.5509C15.8704 90.4239 14.6265 92.2898 13.766 94.1627C12.8443 96.169 11.6616 97.9015 11.0373 99.7745C10.413 101.647 9.79101 103.822 9.55485 107.406C9.3785 110.083 8.85572 112.866 8.61956 117.456C8.45386 120.677 7.92043 124.398 7.68427 128.759C7.54721 131.29 6.98514 133.443 6.36083 136.092C6.1004 137.197 5.89085 138.895 5.81368 140.997C5.76415 142.347 5.4232 149.595 5.57752 160.115C5.65448 165.361 8.52837 167.422 10.4831 169.066C12.1746 170.488 13.8315 171.949 15.7044 172.732C17.5258 173.494 22.5297 173.67 30.468 174.058C35.4081 174.299 44.8271 174.137 49.908 174.06C56.4288 173.961 58.2579 172.426 60.5189 171.336C63.0736 170.105 65.2726 167.749 67.1455 166.271C68.8807 164.902 70.8843 164.167 74.2327 160.901C76.2836 158.9 77.4314 156.067 79.15 152.871C80.3546 150.631 80.2466 146.415 80.6347 142.896C81.1232 138.467 81.4905 135.959 81.7267 132.685C81.9109 130.131 82.5848 127.7 83.0501 125.509C84.0531 120.786 83.2115 112.885 82.5872 111.012C81.9629 109.139 81.0322 106.965 80.1718 104.933C79.3411 102.971 78.535 101.194 77.9107 99.3208C77.1572 97.0604 77.1321 94.1791 76.5849 91.6865C75.9133 88.6268 75.7291 86.6967 75.182 84.7466C74.5673 82.5558 74.6348 79.0741 74.2467 76.2519C73.8837 73.6125 73.6996 68.3369 73.2342 64.715C72.9306 62.3517 72.147 59.5733 71.3637 57.235C70.5935 54.9359 70.426 52.7176 69.9607 50.6856C69.7412 49.727 69.4907 47.7324 67.6389 45.3942C61.4297 37.5544 55.4707 45.8432 52.279 46.0793C49.1924 46.3077 44.5839 46.9374 40.7398 49.1868C38.3535 50.5832 38.4764 53.7838 37.616 55.8929C36.6536 58.2516 35.2029 60.3308 33.9543 62.7509C32.9281 64.7399 32.238 66.5692 31.9247 68.9075C31.5705 71.5505 30.3675 74.2012 29.666 76.9346C28.8688 80.0408 28.0292 83.0865 26.6286 86.9843C25.4749 90.1952 24.7557 92.7574 24.1314 95.0957C23.4674 97.5826 22.8851 100.081 22.6489 102.501C22.4376 104.667 21.4822 107.404 20.935 110.06C20.429 112.517 20.0792 115.354 19.8431 118.321C19.6306 120.991 19.1439 124.707 18.5968 127.751C18.0547 130.767 17.582 135.145 17.1939 139.125C16.8855 142.286 16.96 144.825 16.7262 148.538C16.1825 157.173 16.801 163.377 17.2663 164.155C17.7308 164.933 20.9865 164.784 25.1134 164.707C27.5534 164.662 35.5911 164.317 46.8894 164.239C51.5575 164.208 54.9656 163.849 59.4059 163.618C62.74 163.444 63.8696 159.809 64.8119 157.234C65.9749 154.057 65.5906 150.764 66.2149 147.884C67.0026 144.249 67.7698 140.485 68.4759 137.593C69.1266 134.928 69.0231 128.364 68.5578 124.029C68.2913 121.546 67.3115 119.123 66.7644 116.317C65.9545 112.164 65.4409 108.685 65.2048 105.87C64.9935 103.351 64.197 99.6505 63.5703 95.5142C62.9183 91.2104 62.0084 87.3234 61.9312 85.2213C61.6494 77.5448 61.2321 64.7174 60.9188 62.0681C60.6395 59.7067 59.3615 57.394 57.8066 55.1283C57.4591 54.622 56.8736 54.5788 56.095 54.7308C50.9747 55.7302 46.4358 61.1071 41.605 67.411C38.8775 70.9702 38.3174 74.2012 37.305 77.3228C36.0054 81.3296 34.2676 88.2119 32.708 92.6756C31.5441 96.0067 30.3674 99.4541 29.2778 102.961C27.7276 107.952 27.0939 111.145 26.7806 114.187C25.9996 118.946 25.691 121.906 25.2233 123.928C25.0643 124.871 25.0643 125.642 25.0643 126.437" stroke="white" stroke-width="11" stroke-linejoin="round"/>
<path d="M42.8349 87.6227C42.5263 89.7832 41.75 94.2913 39.5801 103.216C38.2232 108.798 35.5583 116.308 34.0548 121.824C32.5514 127.34 32.0884 130.581 31.8499 133.253C31.6114 135.926 31.6114 137.932 31.6114 139.999" stroke="white" stroke-width="11" stroke-linejoin="round"/>
<path d="M13.8408 114.746C13.8408 114.129 13.8408 112.113 13.6093 109.464C13.5241 108.488 12.9149 108.358 12.4449 108.51C10.2397 109.223 9.17372 111.622 8.23142 113.336C6.8641 115.823 7.45278 119.881 6.90564 122.451C6.17215 125.896 6.35849 130.609 7.13478 134.144C7.48547 135.741 7.13946 137.188 6.75131 137.581C5.25919 139.091 5.5822 133.153 5.50036 121.417C5.47317 117.519 6.66714 115.382 7.21428 113.273C7.78568 111.071 8.07008 108.835 9.08253 106.803C9.31869 106.333 9.47302 105.87 9.62968 105.4C9.78634 104.93 9.94066 104.467 10.5673 103.055" stroke="white" stroke-width="11" stroke-linejoin="round"/>
<path d="M36.2879 60.0315C36.9098 59.5685 37.8404 57.7026 38.5466 55.5982C39.5179 52.7035 39.4024 50.6879 39.9495 48.7379C40.0989 48.2055 40.029 47.5734 39.9519 47.4869C38.9079 46.3164 38.9394 50.6739 38.6284 51.1439C37.4045 52.9935 38.4671 45.5438 39.4795 43.6709C40.4592 41.8586 41.5816 39.9321 42.5964 37.982C43.9755 35.3318 46.0991 34.1613 47.972 33.378C49.7934 32.6163 58.1924 32.4404 63.4043 32.9829C64.4777 33.0946 65.2772 34.152 66.0559 34.8511C67.512 36.1586 67.1525 38.8191 67.5407 41.314C67.6846 42.2392 67.6202 43.6358 67.3115 44.3513C67.0029 45.0668 66.3856 45.0668 65.7589 44.9125C63.1832 44.2782 61.2415 42.42 58.4332 42.4153C55.8761 42.411 52.6835 49.2382 49.3141 54.7915C46.4951 59.4379 44.5558 64.3713 41.446 73.8598C39.1022 81.0111 38.3174 87.7536 37.6955 92.0349C36.9693 97.0337 36.2879 100.698 35.8997 104.907C35.8202 108.162 35.6659 110.996 35.4321 114.096C35.3526 116.271 35.3526 119.666 35.3526 123.164" stroke="white" stroke-width="11" stroke-linejoin="round"/>
<path d="M80.7142 121.293C81.6449 121.915 83.0478 122.691 83.8264 123.702C86.7411 127.483 84.1468 135.313 83.5225 137.186C82.8982 139.368 82.5848 143.712 81.9652 146.385C81.6542 146.7 81.1912 146.855 80.7142 147.481" stroke="white" stroke-width="11" stroke-linejoin="round"/>
<path d="M11.035 162.446C11.1893 163.377 12.1199 165.243 13.4457 167.038C14.7187 168.763 17.105 169.143 19.3661 170.314C21.2597 171.295 23.8017 172.108 26.6894 172.655C28.5955 173.016 30.2038 172.889 34.8405 173.122C46.8697 173.729 55.4567 173.048 56.4668 172.737C58.8944 171.989 61.0638 171.023 63.713 170.786C64.8248 170.687 65.7449 170.087 66.2149 169.774C67.6574 168.812 62.1767 171.172 59.6024 171.797C58.137 172.152 56.7146 172.421 56.0108 172.732C55.8471 172.804 56.3873 173.043 56.8573 173.045C58.7871 173.055 60.5961 171.958 65.6514 171.722C67.4646 171.637 68.7051 171.177 69.7947 170.712C71.9459 169.793 72.4463 166.664 73.6177 164.791C74.6787 163.095 75.2521 161.052 75.9583 153.93C76.4922 148.545 76.0378 138.334 76.1149 132.701C76.2243 124.722 76.8141 121.929 76.8959 115.239C76.9327 112.233 76.1968 110.079 75.4953 106.887C74.7428 103.464 73.5499 100.109 72.3013 96.2881C70.5385 90.8941 68.5554 83.1145 67.702 80.152C67.1525 76.4131 66.9982 72.9759 66.7644 71.1147C66.6849 69.8708 66.6849 68.0189 66.6849 66.1109" stroke="white" stroke-width="11" stroke-linejoin="round"/>
<path d="M72.2966 53.0168C71.988 53.0168 71.829 54.2514 71.9833 56.3535C72.1728 58.9354 75.0931 60.4898 76.0354 62.4399C76.5598 63.5251 76.5054 72.4195 76.4283 85.0436C76.3924 90.9167 75.2615 92.7574 75.0253 96.1829C74.9482 96.9709 74.7938 97.4339 74.7143 100.064C74.6348 102.695 74.6348 107.479 74.6348 112.408" stroke="white" stroke-width="11" stroke-linejoin="round"/>
<path d="M64.3466 57.6933C65.4362 56.295 66.0582 54.1205 66.2944 51.6232C66.535 49.0786 67.4611 46.9468 68.0855 45.0739C68.7098 43.2009 69.6404 41.335 70.8118 39.4621C71.9043 37.7155 72.6053 35.7233 72.6871 31.5215C72.7341 29.1097 71.5203 27.3056 70.2764 25.3555C68.5849 22.7039 66.2266 21.8435 64.3536 20.8311C62.5936 19.8796 60.6148 19.5053 57.7388 18.9581C50.9116 17.6593 48.3064 19.3463 46.0383 19.8116C43.6935 20.2926 41.909 21.5255 39.9589 22.3813C37.2306 23.5786 36.6059 26.6603 35.4344 29.2347C34.2654 31.8037 34.4173 36.6118 36.2013 41.7021C36.4991 42.5517 37.2138 42.5696 37.8381 42.6491C38.4624 42.7286 39.234 42.7286 39.863 42.4971C42.911 41.3754 45.6221 34.657 47.0414 31.5121C47.4459 30.6157 47.82 29.6392 48.5963 28.7834C50.2621 26.947 55.1153 27.2963 58.5689 26.9081C59.3466 26.8207 60.4278 26.8286 61.0614 27.0601C61.6951 27.2916 61.8494 27.7546 61.6974 28.1474C61.5454 28.5402 61.0825 28.8489 60.2267 29.0079C59.3709 29.1669 58.1363 29.1669 56.8643 29.1669" stroke="white" stroke-width="11" stroke-linejoin="round"/>
<path d="M60.6055 17.0081C58.2719 17.63 55.7887 17.9433 52.5175 18.3315C50.976 18.5144 48.3438 18.411 47.3009 18.3338C46.2581 18.2567 46.8754 18.1023 47.502 17.9457C52.789 16.6239 61.0637 18.093 62.7823 19.4188C63.4113 22.4468 63.1027 26.3563 62.4036 27.2121C62.0131 27.6049 61.5501 27.9136 60.6055 29.1669" stroke="white" stroke-width="11" stroke-linejoin="round"/>
<path d="M38.6261 28.2316C37.6955 29.1622 36.1382 31.0281 35.4321 34.8301C33.3074 46.2697 36.1289 48.9483 36.9846 50.9078C38.607 54.6223 47.1747 41.6717 49.3001 37.3624C49.8463 36.2549 50.7755 35.4053 52.417 34.0842C53.4592 33.2454 52.3468 31.0468 51.6477 29.4124C51.0777 28.0798 49.8543 27.301 48.9213 26.5223C48.1193 25.853 46.7397 25.8934 45.1848 26.4335C43.0634 27.1704 42.0633 30.7101 40.5855 35.1317C39.6461 37.9426 39.2621 42.1768 38.7126 50.1104C38.1631 58.044 37.7001 69.6183 36.2271 82.9883C34.754 96.3583 32.2848 111.173 30.8585 119.345C28.8853 130.651 27.8796 137.764 26.8601 142.326C25.783 147.145 25.2233 150.278 24.6762 154.01C24.4724 155.4 24.5967 157.265 24.5195 157.833C24.4424 158.401 24.2881 157.629 24.1314 152.139C23.9747 146.649 23.8204 136.464 23.8181 130.754C23.8146 122.386 24.4377 119.591 24.5195 113.6C24.6079 107.136 23.8204 98.3879 23.5071 95.8135C23.4453 95.3057 21.9545 98.0512 19.9366 102.936C16.5258 111.192 15.2438 119.086 15.3981 123.136C15.5585 127.345 19.2749 133.415 22.2468 138.11C26.7727 145.26 28.3285 148.248 29.659 150.435C31.2108 152.985 31.92 155.422 33.0097 156.6C33.2713 156.883 33.6316 155.45 34.4851 149.032C35.3385 142.613 36.7274 130.73 37.4429 123.992C38.2882 116.031 38.7757 112.431 40.0968 108.152C41.9108 102.277 42.6759 99.9498 42.9121 96.522C43.1604 92.9178 43.6112 90.1292 44.6236 87.632C45.6708 85.0493 47.343 78.1669 49.5316 71.5847C50.883 67.5206 51.8698 63.3144 53.0413 60.1227C54.1187 57.1873 54.3671 54.5881 54.9142 51.9389C55.1347 50.8713 54.9937 49.1541 54.9937 48.6654C54.9937 46.9632 55.4613 54.3917 56.0038 58.8484C56.3503 61.6952 57.1729 64.072 57.8744 66.1039C58.7237 68.564 61.5361 69.6931 62.3147 69.9293C64.5477 70.6065 63.098 64.5583 63.409 63.8545C65.1366 59.9447 63.5703 76.8481 61.3186 84.3936C59.8951 89.1638 56.8783 93.9873 54.6967 98.4253C53.4177 101.027 53.1278 103.509 51.7319 109.548C50.6637 114.17 49.41 122.069 48.6173 128.362C46.5542 144.739 46.8894 147.631 46.6556 149.106C46.5207 149.958 46.5761 151.045 46.4217 145.428C46.2674 139.812 45.9588 127.466 45.8769 120.257C45.74 108.194 48.1287 102.615 49.9197 97.3871C52.3075 90.4172 53.4224 84.0779 55.3 79.7615C56.4333 77.1562 56.3966 74.2293 57.2501 71.9659C57.8406 70.3999 57.7996 68.4585 57.6453 67.6729C56.9046 63.9022 55.9337 75.2908 54.5377 86.5821C53.3551 96.1483 52.2159 113.614 51.1917 123.601C49.6585 138.552 47.8294 141.851 46.5036 145.283C44.4224 150.672 44.5558 154.318 43.7725 157.604C43.6222 158.234 43.4615 158.696 43.4592 159.166C43.4569 159.636 43.6112 160.098 44.0765 160.028C47.2865 159.544 48.2783 154.047 51.8605 149.064C57.3294 141.457 55.929 134.574 55.3094 129.262C54.7255 124.256 53.5908 116.981 54.3671 110.011C54.5839 108.064 54.6804 106.647 54.9914 105.248C55.1643 104.471 55.3023 103.541 55.9991 107.694C56.6959 111.847 57.9305 121.106 58.5665 130.197C59.2025 139.288 59.2025 147.93 59.0482 152.691C58.8354 159.255 57.1776 160.725 56.8666 161.429C56.6693 161.876 56.3966 152.705 56.1652 141.552C55.9337 138.269 55.4707 139.812 55.2322 141.224C54.9937 142.637 54.9937 143.871 54.9937 145.143" stroke="white" stroke-width="11" stroke-linejoin="round"/>
<path d="M60.0204 13.988C61.7338 13.988 65.3443 13.8454 66.2831 13.5569C67.1551 13.289 68.0106 12.9811 69.0553 12.4777C69.9868 12.0287 70.8194 11.6847 71.6848 11.2169C72.498 10.7773 73.4122 10.4618 74.2776 9.88487C75.1429 9.30797 76.005 8.73324 76.8704 7.977C77.66 7.28696 78.3818 6.57257 79.2471 5.81633C80.0367 5.12629 80.5446 4.4832 80.9044 4.26606C81.0293 4.19067 81.1215 4.47672 81.1226 4.69387C81.1275 5.67328 80.4042 6.63739 80.1157 7.50274C79.8273 8.36808 79.5399 9.23019 79.2515 10.0955C78.963 10.9609 78.533 11.823 78.3505 12.6883C78.1407 13.6827 77.3792 14.6319 77.0551 15.4972C76.7099 16.4189 76.1563 17.3673 75.5081 18.3417C74.7559 19.4725 74.283 20.0357 73.9232 20.1815C72.4608 20.7744 74.566 16.4425 75.1073 15.5037C75.6025 14.6447 75.5772 13.275 75.9716 12.2627C76.3314 11.3388 76.5841 10.5331 76.6932 10.4229C77.6127 9.49429 74.8642 12.8255 73.0989 14.7021C72.0638 15.8024 71.2602 16.2913 70.3236 16.9384C69.2536 17.6776 68.2353 17.8037 67.3699 17.9128C66.9293 17.9684 66.5046 18.0932 66.2161 17.9863C64.6448 17.4037 69.4496 14.7096 70.316 13.9556C71.5537 12.8784 72.548 12.6224 73.2707 12.0445C74.0197 11.4455 71.835 14.1997 71.473 15.1007C71.0687 16.1074 70.8972 17.0086 70.7514 17.6957C70.8216 17.7346 71.0355 17.592 71.2527 17.4472C71.4698 17.3024 71.6837 17.1598 72.1202 17.0129" stroke="white" stroke-width="3" stroke-linejoin="round"/>
<path d="M58.508 13.988C59.154 13.7006 60.1587 13.4133 61.2769 13.1248C62.2425 12.8757 63.3997 12.7651 64.3385 12.656C65.4254 12.5296 66.7142 12.1903 67.5795 11.8641C68.4618 11.5314 69.6656 11.3261 70.8194 10.9642C71.8884 10.6289 72.764 10.3883 73.6294 9.8849C74.5284 9.36191 75.3568 8.73326 76.2578 8.15636C77.3036 7.57946 78.1657 6.86212 79.0311 6.35545C79.2482 6.21176 79.4621 5.99786 80.1146 5.5614" stroke="white" stroke-width="3" stroke-linejoin="round"/>
<path d="M63.0454 12.9077C63.4753 12.8364 65.0505 12.2638 66.4257 11.7571C68.0347 11.1643 68.8748 10.8205 69.9552 10.3527C71.0373 9.88412 71.8998 9.30801 72.8008 9.01956C73.854 8.68237 74.7086 8.22767 75.574 7.72424C76.46 7.20879 77.0854 6.35654 77.9507 5.77964C78.8503 5.1799 79.6782 4.55454 80.1849 3.90742C80.6918 3.26 81.1928 2.826 81.41 2.64559C82.1128 2.06161 79.6134 4.26069 78.8571 4.9467C78.1008 5.63276 77.3101 6.42136 76.6619 6.9626C76.4716 7.12147 76.4415 6.86213 76.5485 6.60933C77.0738 5.36753 78.1657 4.628 78.8874 3.80047C79.9088 2.62925 80.7607 1.96174 81.1917 1.67437C81.4089 1.5296 81.6228 1.387 81.733 1.6344C82.4509 3.24622 81.2684 4.26069 80.9443 5.12603C80.8593 5.35316 80.6937 5.55709 80.5133 5.73858C80.3329 5.92008 80.119 6.06268 79.9731 5.95789C79.1079 5.33625 79.9699 4.26717 79.9353 4.01437C79.8059 3.06842 77.8891 5.1941 76.8056 5.88335C76.1606 6.34789 75.5081 6.85565 74.969 7.25105C74.7151 7.43255 74.5012 7.57515 74.0648 7.72208" stroke="white" stroke-width="3" stroke-linejoin="round"/>
<path d="M55.267 14.8523C52.4127 14.8523 46.486 14.7097 44.6505 14.6005C43.377 14.5248 42.0912 14.2775 41.1902 13.7741C40.1762 13.2075 39.2823 12.9811 38.3813 12.4777C37.2539 11.8477 36.2574 11.11 35.3921 10.5331C34.5267 9.95619 33.8072 9.23885 32.9797 8.73217C31.861 8.04721 31.0718 7.22078 30.2065 6.64388C29.3536 6.0753 28.6951 5.41879 27.8297 4.77167C27.0275 4.17178 26.1023 3.69025 25.4163 3.00748C25.0545 2.64741 24.5876 2.39385 24.1922 2.28474C24.0143 2.23564 23.8681 2.53213 23.8303 2.78493C23.6713 3.84823 24.512 4.6928 25.0155 5.55815C25.5194 6.42444 26.0936 7.143 26.744 7.93488C27.4422 8.78499 28.0382 9.8784 28.8323 10.7438C29.5516 11.5276 30.1989 12.8299 31.2079 13.9837C32.1949 15.1123 33.2238 16.2178 34.4478 17.2971C35.2729 18.0245 36.4648 18.0198 37.3302 18.3082C38.2423 18.6123 39.2737 18.668 40.4621 18.6345C40.7384 18.6267 40.8596 18.3137 40.9331 18.0965C41.0066 17.8794 41.0066 17.6655 40.864 17.484C40.1727 16.6042 38.9237 16.2956 38.0205 15.8624C36.9878 15.367 35.1857 13.3528 33.6646 12.0823C32.7096 11.2846 31.5774 10.7513 30.8179 9.95727C30.0795 9.1852 29.1963 8.58849 29.0516 8.37134C28.1528 7.02309 32.1435 11.4643 32.8295 12.2206C33.6193 13.0912 34.8789 13.9837 35.8177 14.4903C36.8207 15.0316 37.7612 15.5696 38.6622 15.9315C39.7328 16.3615 40.7149 16.3647 40.8629 16.1865C40.6544 16.0082 39.87 15.6517 39.359 15.4324C38.848 15.2131 38.6341 15.1418 38.1977 14.6362" stroke="white" stroke-width="3" stroke-linejoin="round"/>
<path d="M25.2337 4.48108C25.2337 5.19842 25.5189 6.3479 26.2395 7.28671C26.9089 8.1589 27.537 9.23023 28.0047 10.0956C28.4725 10.9609 29.3346 11.9656 29.9493 12.9044C30.4708 13.7008 30.778 14.6319 31.4251 15.4972C32.025 16.2994 32.5065 17.2247 33.1893 18.09C33.7316 18.9554 34.3042 19.6749 34.9902 20.4668C35.1706 20.6839 35.3845 20.8978 36.037 21.3343" stroke="white" stroke-width="3" stroke-linejoin="round"/>
<path d="M32.5799 14.204C32.5799 16.1314 32.4373 20.0335 32.3282 20.8989C32.1383 22.4048 32.2904 24.7135 32.3995 25.688C32.6513 26.7338 33.0812 27.5959 33.4075 28.6762C33.4442 28.9657 33.4442 29.2509 33.8763 29.5448" stroke="white" stroke-width="3" stroke-linejoin="round"/>
<path d="M28.9068 7.50598C27.8286 6.49911 26.9665 5.92438 26.1012 5.34748C25.1648 4.72322 24.3737 3.76371 23.759 2.97182C23.4725 2.6027 23.5051 2.10648 23.6121 1.81803C23.8849 1.0824 25.2294 2.60559 25.951 3.39747C26.8105 4.34059 27.6061 5.12493 28.5071 5.84659C29.6034 6.72469 30.2724 7.50166 31.0286 8.18767C31.7849 8.87374 32.5756 9.66233 33.2616 10.492C33.4247 10.6893 33.656 10.8161 33.6236 10.8539C33.0038 11.577 31.72 9.95618 30.066 8.80779C28.513 7.72951 27.8308 6.64604 27.2161 5.60136C26.7164 4.7521 26.3875 3.83717 25.9553 2.90052C25.8306 2.63024 25.8819 2.25556 25.9888 2.14321C26.5752 1.52725 27.4635 3.39639 27.8967 4.22609C28.3335 5.06268 28.976 5.77313 30.2702 7.17648C31.0937 8.06945 31.7114 8.87153 32.4687 9.73471C32.7212 10.0225 33.0769 10.3797 32.9754 10.2781C31.1453 8.44804 29.7019 6.86211 29.125 5.81742C28.8597 5.33683 28.5481 4.91534 28.439 4.66255C28.1351 3.95829 29.7668 5.9892 30.4528 6.81889C31.1034 7.60584 31.6422 8.15202 31.7513 8.44047C32.004 9.10842 30.2075 7.51031 28.9846 6.4667C26.91 4.69634 26.0288 3.40504 25.4519 2.53969C25.3071 2.32254 25.1645 2.10864 25.2337 2.1054C26.3533 2.05291 26.8153 3.82853 27.5359 4.69388C28.2394 5.53879 28.976 6.6374 29.7678 7.28776C30.5423 7.92384 31.4953 8.08072 32.3606 8.58416C33.2596 9.10715 34.0881 9.59319 34.9534 9.91729C35.8751 10.2625 36.5383 10.9587 37.2945 11.6447C37.476 11.8252 37.6186 12.0391 37.5851 12.1136C37.5516 12.1882 37.3377 12.1168 36.6852 11.6113" stroke="white" stroke-width="3" stroke-linejoin="round"/>
<path d="M24.3694 2.7525C24.512 3.18248 24.9442 4.04458 25.197 4.90993C25.2587 5.12132 25.2337 5.34098 25.198 5.34422C25.1624 5.34746 25.0911 5.13356 24.983 5.13032C24.875 5.12708 24.7324 5.34098 24.6589 5.59378C24.3671 6.598 25.0868 7.50165 25.4843 8.367C25.9102 9.29395 26.5992 10.0945 27.1761 10.9598C27.753 11.8251 28.4704 12.5446 28.977 13.3009C29.5598 14.1707 30.631 14.8479 31.4964 15.4626C31.9274 15.643 32.3617 15.7878 32.7928 16.0028C33.0099 16.1465 33.2238 16.3604 33.8764 16.7968" stroke="white" stroke-width="3" stroke-linejoin="round"/>
<path d="M24.5855 4.26501C24.5855 4.76629 24.7281 5.91576 25.0165 6.85457C25.2844 7.7265 25.5924 8.58203 25.9165 9.44738C26.2617 10.3691 26.8153 11.1748 27.4278 12.0402C28.0659 12.9415 28.6864 13.625 29.1575 14.4169C29.7293 15.3783 30.4884 16.503 31.2447 17.6212C32.0009 18.5946 32.6513 19.3875 32.8662 19.7473C33.0099 19.8931 33.2238 19.9644 33.4442 20.254" stroke="white" stroke-width="3" stroke-linejoin="round"/>
<path d="M25.0176 1.24005C25.0889 1.67002 25.3763 2.53213 25.9154 3.32618C26.0958 3.47202 26.3097 3.54332 26.4912 3.68701C26.6727 3.83069 26.8153 4.0446 26.9622 4.26499" stroke="white" stroke-width="3" stroke-linejoin="round"/>
<path d="M25.0099 1.42834C25.097 1.95378 25.6224 3.00729 26.503 3.62645C27.3249 4.20441 27.9988 5.11958 28.9665 5.73875C30.08 6.45127 30.9032 7.23188 31.7837 7.63189C32.6666 8.03298 33.2795 9.08014 34.2908 9.6993C35.5687 10.5799 36.6222 10.9337 37.6797 11.372C37.945 11.4617 38.2064 11.4617 39.0038 11.9898" stroke="black" stroke-width="3" stroke-linejoin="round"/>
<path d="M24.2177 1.42834C24.3049 1.95378 24.4818 3.53008 24.7445 5.07602C24.9384 6.217 25.6224 7.23188 26.3274 8.28935C27.0324 9.34681 28.0832 10.4003 29.2305 11.1951C30.2752 11.9188 31.5157 12.9509 32.663 13.7919C33.5741 14.4597 34.9482 14.5404 35.7905 14.7186C37.0987 14.9955 33.7284 12.9615 32.6709 12.3001C31.7789 11.7422 31.088 10.5007 30.0305 9.57257C28.9301 8.6068 27.9195 7.68074 27.1235 7.10646C26.2807 6.49847 29.8417 8.72633 31.0787 9.3917C32.138 9.96143 33.1897 10.4901 35.3429 11.5898C36.6276 12.2459 37.6784 12.7819 38.7358 13.0447C39.0073 13.1121 39.2626 13.2202 39.2665 13.2216C39.2705 13.2229 39.0091 13.1357 39.0051 13.0037C39.0012 12.8717 39.2626 12.6974 39.5279 12.6077C39.7933 12.5179 40.0547 12.5179 40.1893 12.6486C40.324 12.7793 40.324 13.0407 40.1933 13.2189C39.5642 14.0768 38.217 14.2764 37.4645 14.6738C36.3992 15.2363 39.2652 13.751 39.7484 13.4882C39.9702 13.3126 40.1445 13.0513 40.1035 12.8295C40.0626 12.6077 39.8012 12.4334 39.2679 12.2539" stroke="black" stroke-width="3" stroke-linejoin="round"/>
<path d="M82.3059 2.74854C82.1316 3.27397 81.6035 4.32748 81.0319 5.38494C80.8114 5.9117 80.5474 6.44241 80.2398 6.96917C80.1065 7.23452 80.0193 7.49592 79.9295 7.76524" stroke="black" stroke-width="3" stroke-linejoin="round"/>
<path d="M64.6154 13.046C65.1408 12.6948 66.1943 12.3436 67.2518 12.2103C68.3445 12.0725 69.1014 11.6386 69.3668 11.4631C70.5327 10.6916 65.6768 12.3383 64.4002 12.737C63.8529 12.908 63.2107 12.8691 62.9005 13.0011C61.73 13.4992 65.4022 12.7819 66.7224 12.5192C68.0651 12.252 69.0988 11.8156 69.7179 11.0248C69.8722 10.8278 70.1549 10.7594 70.1589 10.8017C70.2452 11.7221 68.3172 11.636 66.8663 12.0756C64.8212 12.6953 64.09 13.2202 63.8246 13.5278C63.1967 14.2557 66.1046 14.1021 67.2518 14.3648C68.48 14.6461 69.6295 14.4559 69.9384 14.3226C69.996 14.2977 69.8117 14.6249 69.5912 14.8031C69.1634 15.149 67.8815 15.1583 66.4729 15.289C66.0061 15.3323 66.1099 15.6811 66.2854 15.8593C66.6442 16.2235 67.2531 16.4758 67.6928 16.7412C68.5056 17.2318 68.8374 15.1609 69.277 14.9391C69.4552 14.9787 69.5423 15.3272 69.5872 15.6811C69.6321 16.0349 69.6321 16.3834 69.8961 17.2706" stroke="black" stroke-width="3" stroke-linejoin="round"/>
<path d="M70.1602 16.4785C70.3344 17.091 70.8625 18.3214 71.4777 19.3789C72.1168 20.4774 72.7108 21.4899 73.0197 22.5909C73.3668 23.8279 73.8514 24.9224 74.6475 25.762C74.8449 25.9702 73.9465 25.1943 73.6824 24.624C73.5473 24.3321 73.5927 23.9665 73.6798 23.9177C74.5182 23.4477 75.2614 25.4504 75.6601 26.6386C75.7869 27.0165 75.705 27.5574 75.5743 27.6961C75.4436 27.8347 75.1822 27.5733 74.9168 27.3515C74.6515 27.1297 74.3901 26.9554 74.3848 26.5119" stroke="black" stroke-width="3" stroke-linejoin="round"/>
<path d="M76.4971 33.3768C76.3228 33.3768 75.9716 33.3768 75.4449 33.2897C74.8647 33.1937 74.3003 32.5002 73.7286 31.8415C73.3024 31.3502 73.3286 30.7391 73.4158 30.2124C73.5117 29.6322 73.9438 29.1549 74.2065 28.7588C74.3289 28.5744 74.6435 28.6242 74.7782 28.7549C75.4592 29.4159 75.1769 31.254 75.6587 32.5808C75.7601 32.8599 75.8792 33.1075 75.9677 33.1115C76.8302 33.1501 76.4971 30.4856 76.4971 29.5074C76.4971 27.1746 76.4971 33.5564 76.4535 32.854C76.4093 32.141 76.233 30.3114 76.1023 27.9799C76.0095 26.3238 74.4745 25.5508 73.9465 24.7521C73.8567 25.2709 73.9438 25.9812 74.0758 26.7693C74.1207 27.2961 74.1207 28.0803 73.5927 29.1523" stroke="black" stroke-width="3" stroke-linejoin="round"/>
<path d="M70.6882 11.1977C71.2137 11.636 72.2672 12.5126 73.3247 12.8255C73.8451 12.9795 74.5564 13.046 75.3907 12.9153C76.9742 12.6672 77.812 11.203 78.344 10.1455C78.845 9.14978 79.2219 8.03455 79.9269 6.97708C80.6063 5.95804 80.8959 4.86611 81.424 3.80864C81.5138 3.28188 81.6009 2.75117 81.7329 2.22442C81.7778 1.95906 81.7778 1.69766 81.7778 1.42834" stroke="black" stroke-width="3" stroke-linejoin="round"/>
<path d="M80.1936 7.50122C80.1936 8.02665 80.0193 9.08016 79.3605 10.0941C78.7151 11.0874 77.9968 11.9846 77.2918 13.042C76.5868 14.0995 75.8845 15.153 75.4422 16.2105C75.0004 17.267 74.3003 18.3215 73.5953 19.3789C73.2441 19.9057 72.9775 20.4364 72.9761 20.7453C72.972 21.7188 74.4693 18.9499 75.1307 17.8026C75.4159 17.3079 75.4409 16.3966 75.2667 15.4725C75.1536 14.8731 73.862 15.5068 71.9715 15.5557C71.5495 15.5666 71.3959 15.1636 71.3061 15.2467C70.3952 16.0907 70.9523 17.6165 70.9959 18.4099C71.2163 17.1914 71.1292 15.1609 71.1279 15.0263C71.2137 15.153 71.4751 15.6758 72.0084 16.4785" stroke="black" stroke-width="3" stroke-linejoin="round"/>
<path d="M45.6047 14.8942C45.779 14.8942 46.043 14.6329 46.4378 14.1932C47.6614 12.8304 50.8802 13.6638 53.6909 13.6176C54.3168 13.6073 54.5767 13.7483 54.7549 13.9239C55.1191 14.2827 55.1101 15.2401 55.0229 16.295C54.9092 17.6718 53.7054 18.5855 52.9133 19.643C51.9423 20.9392 50.7165 22.018 49.5693 23.0754C49.2933 23.3298 49.0425 23.6022 48.7771 23.6933C48.5118 23.7844 48.2504 23.6972 47.985 23.4781C47.3879 22.985 46.9276 22.2899 46.4879 21.7196C46.0551 21.1581 46.1328 20.0931 46.3071 18.9947C46.5867 17.2321 48.5039 16.9221 49.5613 16.2606C50.0455 15.9578 51.0545 15.9504 51.9799 16.0375C52.8716 16.1215 49.2273 18.4007 48.4207 19.6892C47.7375 20.7804 51.2287 17.1914 52.071 16.0851C52.2268 15.8804 52.6387 15.9504 52.8618 16.0811C53.0849 16.2118 53.172 16.4732 53.0862 16.7821C52.5737 18.6273 50.537 19.9057 49.6564 20.9631C49.4518 21.2088 49.391 21.4899 49.2154 21.5374C48.7763 21.6563 48.3349 20.7955 48.0273 19.9611C47.7578 19.2301 47.717 18.0706 47.8477 16.8824C47.9093 16.3229 48.7705 16.3042 49.0359 15.9966C48.7785 15.7761 48.1606 15.6864 47.589 15.8171C47.3659 15.9478 47.2787 16.2092 46.9249 17.0065" stroke="black" stroke-width="3" stroke-linejoin="round"/>
<path d="M28.4423 14.1021C28.7935 14.3635 29.4932 15.2428 30.0688 16.2105C30.7443 17.3461 31.6055 18.4112 32.094 19.466C32.7261 20.831 32.4029 25.329 32.0966 28.0921C32.064 28.3867 31.7903 28.6189 31.7877 28.6228C31.2623 29.411 32.8412 26.7812 33.1937 25.7237C33.5462 24.6663 33.8973 23.6127 34.2498 22.5553C34.6023 21.4978 34.7792 20.0958 34.2102 18.9023C33.668 17.765 32.4055 17.7115 31.9223 17.4488C31.6738 17.3137 31.5263 17.0118 31.5672 16.8336C31.6081 16.6554 31.8695 16.5682 32.1349 16.5669C33.2068 16.5616 34.2459 16.9168 35.9608 17.0501C37.1883 17.1455 38.7292 17.5346 40.357 17.4039C41.6718 17.2984 42.2568 15.6916 42.8746 14.547C43.0474 14.227 42.9644 13.7589 42.8772 13.6652C42.2436 12.9835 41.5597 15.5913 40.8111 16.695C40.1107 17.7277 39.0091 18.4112 37.9516 19.3353C36.9867 20.1786 36.3661 20.9645 35.9265 21.2298C35.7738 21.3219 35.6611 20.9724 35.6598 20.707C35.6585 20.4417 35.7456 20.1803 35.9212 19.9585C36.7245 18.9438 38.3807 18.5063 39.5279 17.8013C40.0673 17.4698 40.4983 17.0092 40.6316 16.5696C40.6847 16.3946 40.3293 16.3042 40.0639 16.3029C39.5372 16.3887 39.0065 16.7399 38.4797 17.1795C38.2143 17.3577 37.9529 17.4448 37.4196 17.5346" stroke="#E07C22" stroke-width="3" stroke-linejoin="round"/>
<path d="M78.6094 3.80468C78.1711 4.06607 77.2945 4.94532 76.237 5.86945C75.2609 6.7225 74.3003 7.49591 73.3326 8.29067C72.8434 8.69246 72.2751 8.90851 71.9226 9.17123C71.764 9.28944 71.9187 9.60821 72.3556 9.74287C72.7926 9.87753 73.5768 9.87753 74.1551 9.70326C75.9306 9.16815 76.3175 7.50648 76.9789 6.44901C77.6164 5.42986 78.2556 4.33803 79.0899 3.49971C79.9269 2.57427 80.719 2.04619 81.2458 1.73859C81.5111 1.60525 81.7725 1.51812 81.7778 1.42834" stroke="#E07C22" stroke-width="3" stroke-linejoin="round"/>
<path d="M72.0084 10.1416C73.0619 10.0545 74.1154 9.87756 75.1729 9.43925C75.4317 9.33199 75.6997 9.34948 75.8343 9.48018C75.969 9.61088 75.969 9.87227 75.8383 10.0505C75.7076 10.2287 75.4462 10.3159 75.1808 10.4043C74.9155 10.4928 74.6541 10.5799 74.1207 10.9337" stroke="#E07C22" stroke-width="3" stroke-linejoin="round"/>
<path d="M70.1602 23.0794C69.9859 23.6048 69.1093 24.4841 68.3146 25.4518C67.5079 26.4339 66.9072 27.737 66.2458 28.8843C65.6816 29.8629 65.323 30.9952 64.8808 32.0527C64.4507 33.0811 64.1771 34.1637 63.8682 35.2211C63.5694 36.2441 63.2107 37.3321 62.812 38.4767C62.3172 39.8972 62.5031 44.8625 61.9341 47.8514C61.6985 49.0891 59.868 49.1293 59.2489 49.9637C58.5616 50.8898 58.1043 51.8542 57.3135 53.5691C56.7467 54.7982 56.52 56.253 56.3867 60.4684C56.256 61.6235 56.1662 62.5028 56.1227 63.5576C56.0791 64.0025 55.992 64.2639 55.9022 64.7972" stroke="#E07C22" stroke-width="3" stroke-linejoin="round"/>
<path d="M49.3013 42.3541C49.8267 42.0029 51.7515 41.1289 53.345 40.2444C54.8269 39.4218 56.0712 38.3988 57.4362 37.1235C59.7582 34.9542 61.0879 33.6461 62.1915 33.027C63.1974 32.4627 64.2563 31.3596 65.36 30.6506C66.2841 29.5958 67.3403 28.3654 67.7825 27.3079C67.871 27.0426 67.9581 26.7812 68.0479 26.2478" stroke="#E07C22" stroke-width="3" stroke-linejoin="round"/>
<path d="M59.3347 13.8381C59.5961 14.2764 60.4753 15.3272 61.3559 16.4745C62.1474 17.5058 62.6774 18.8495 63.5553 19.6878C64.5716 20.6583 65.492 21.4899 66.3726 22.3282C66.771 22.7075 66.7277 23.515 66.6406 24.3058C66.4801 25.7622 64.9692 26.7706 64.1784 27.8281C63.3738 28.9041 62.0701 30.3774 60.9664 31.5682C59.977 32.6357 59.2502 33.6356 58.1505 34.9122C57.901 35.2017 57.8402 35.4838 57.8825 35.3571C58.3978 33.8111 59.8575 32.854 61.1776 31.6658C62.7512 30.2497 63.2899 28.8935 63.6028 27.3977C63.9104 26.2505 64.0873 24.8484 64.3065 23.5678C64.3514 23.2589 64.3514 22.9104 64.3514 22.5513" stroke="#E07C22" stroke-width="3" stroke-linejoin="round"/>
<path d="M29.4985 52.1235C29.4985 52.6489 29.3242 53.7024 29.1909 57.5666C29.1773 57.9597 28.9704 56.4484 28.9704 54.7308C28.9704 54.2331 28.9704 54.4945 28.9268 54.7599C28.6192 55.8174 28.5295 56.6095 28.6615 57.1798C28.7064 57.4887 28.7064 57.8372 28.7064 58.1963" stroke="#E07C22" stroke-width="3" stroke-linejoin="round"/>
<path d="M28.7064 53.4437C29.583 53.1796 30.9877 52.6568 32.354 52.0812C34.0757 51.356 36.3582 50.4548 37.5463 50.1881C39.7575 49.6918 42.1617 48.4322 43.4885 47.9002C44.5514 47.474 45.5995 46.7582 46.6569 46.0533C47.7563 45.3204 48.9422 44.0334 50.0458 43.3244C50.542 43.0057 50.7086 42.3567 50.6663 41.9607C50.5498 40.8678 48.5144 42.7026 47.6761 43.6703C46.2334 45.3356 44.0258 47.1913 42.9683 47.8962C41.9493 48.5756 40.8574 49.2138 39.7999 49.7458C39.5345 49.8343 39.2731 49.9214 39.0078 50.0099C38.7424 50.0983 38.481 50.1854 38.2117 50.2752" stroke="#E07C22" stroke-width="3" stroke-linejoin="round"/>
<path d="M50.0934 41.562C51.1416 41.6491 53.7793 41.826 55.6315 41.3441C56.5076 41.1162 57.6554 41.0339 58.7987 40.9032C59.2606 40.8504 59.4192 40.5111 59.5089 40.2457C59.8525 39.2301 59.8627 37.8734 60.037 36.5981C60.1076 36.0818 60.5598 35.9327 60.7829 35.9736C61.006 36.0146 61.0932 36.276 61.0073 36.6284C60.5506 38.5047 57.4178 41.1025 55.6421 42.6155C53.9197 44.0831 50.8063 46.3938 49.9614 47.1067C48.2187 48.5771 53.8691 43.9436 55.3688 42.8861C56.7096 41.9407 57.5709 41.3877 57.8376 41.2108C60.9964 39.1154 48.4352 46.0453 46.447 47.2784C45.1027 48.1121 44.2001 48.9497 43.1888 50.0508C42.8799 50.3597 42.5314 50.7082 42.2211 50.9313C41.9109 51.1544 41.6495 51.2416 40.8521 51.5954" stroke="#E07C22" stroke-width="3" stroke-linejoin="round"/>
<path d="M30.5546 56.348V56.8761" stroke="#E07C22" stroke-width="3" stroke-linejoin="round"/>
<path d="M28.9704 58.1963C29.2318 58.6346 30.2853 59.1627 31.7811 59.6907C32.9569 60.1059 34.2459 60.0445 35.6968 60.2637C37.6631 60.5607 38.7345 60.7469 40.4494 61.5377C42.0598 62.2803 44.0152 63.1232 45.4226 63.5628C47.2686 64.1395 48.2398 64.8817 49.2973 65.324C50.3538 65.7658 51.4083 66.4659 52.3337 67.5208C53.6331 69.0018 54.3127 69.8984 54.6256 70.8661C54.9831 71.9718 55.9867 72.9771 56.6917 74.0345C57.4245 75.1339 58.1887 76.1455 58.804 77.203C59.4431 78.3015 60.037 79.314 60.8714 80.6342C61.9013 82.2637 63.554 83.9769 66.5838 87.0529C68.1879 88.6814 69.8909 89.9652 71.0355 90.7573C72.5442 91.8014 73.9359 92.5158 75.2165 93.135C76.5707 93.7898 77.5479 94.4538 78.6054 95.1153C79.5757 95.6869 80.4523 96.2176 81.5098 96.743C81.7752 96.92 82.0366 97.0942 82.3059 97.5378" stroke="#E07C22" stroke-width="3" stroke-linejoin="round"/>
<path d="M40.06 54.2358C39.2705 54.2358 37.6942 54.7586 35.0538 55.5969C34.3474 55.8212 33.6491 56.0787 33.5079 56.0827C32.331 56.1157 36.4374 54.5949 38.3371 54.1486C39.4325 53.8913 40.3214 53.6206 40.7174 53.2707C40.9387 53.0753 40.8521 52.5723 40.5907 52.3479C39.322 51.2587 37.3404 52.8258 35.5344 53.3975C33.6689 53.9879 32.6696 54.2358 32.2299 54.3665C31.7761 54.5014 31.8748 55.2893 31.962 55.816C32.0579 56.3962 32.49 56.8735 32.7527 57.3567C33.3709 58.4937 37.2163 58.4604 39.9583 58.4604C46.012 58.4604 31.9699 58.1963 31.088 58.1963C30.299 58.1963 38.3279 58.4604 42.2554 58.1541C43.8475 58.0299 44.5433 56.0048 48.8854 52.8839C52.7511 50.1054 54.6665 49.2243 55.1959 48.1669C55.5023 47.5549 56.0764 47.0223 56.3841 46.3635C56.5269 46.0575 56.6045 45.7919 56.388 45.7443C53.7588 45.1672 49.8452 48.86 47.1111 50.2699C44.2384 51.7513 42.0931 52.736 40.8996 53.7037C40.3877 54.1188 40.2369 54.7612 39.9742 55.2444C39.6924 55.7625 38.9193 55.9071 38.4784 55.9084C34.8256 55.9194 48.4088 50.7188 50.0445 50.0574C50.3576 49.9308 50.6162 49.8369 50.2716 50.2713C46.9413 54.4692 42.0006 55.9943 41.5148 56.2583C40.4752 56.8233 45.412 55.0358 47.7461 53.7605C48.4812 53.3589 48.0761 53.0951 46.8946 53.3103C40.9695 54.3894 39.3629 55.7302 37.8671 56.2583C37.2821 56.4648 36.2948 56.3481 35.9317 56.3481C34.6907 56.3481 42.9274 57.1402 47.2193 56.6596C51.6054 56.1685 53.077 53.8028 54.2704 52.3928C55.5325 50.9017 56.8633 48.9603 58.2297 48.1656C59.4485 47.4566 60.5598 45.8816 62.1453 44.4717C63.4538 43.3081 63.9976 42.0954 64.5256 39.9487C64.8499 38.6305 64.6154 36.1545 64.4847 34.9848C64.354 33.8152 64.0926 33.9894 63.7837 34.2535C62.4322 35.4086 62.0648 36.9783 60.3974 40.0979C59.6317 41.5304 59.3347 42.6129 58.6336 44.1522C58.1043 45.5199 57.489 46.8348 57.0494 48.1537C56.8712 48.6884 56.7841 48.9498 56.6943 49.4831" stroke="#E07C22" stroke-width="3" stroke-linejoin="round"/>
<path d="M57.4864 42.0901C56.256 44.4638 55.6408 45.1687 55.4626 45.2585C53.7973 46.0973 58.796 42.4492 59.9486 41.9132C61.4019 41.2373 58.8119 44.8994 58.3234 46.0902C58.2049 46.379 58.2785 46.7477 58.1478 47.0144C57.5861 48.1605 55.9972 48.6012 54.6308 49.5227C53.1834 50.4989 52.2109 52.0284 51.4162 53.9202C50.7132 55.5936 49.9191 56.7811 48.9092 57.7092C48.6782 57.9214 48.5989 58.191 48.6847 58.1514C49.9522 57.5665 50.7059 55.915 51.5865 54.7678C51.7811 54.5142 51.8519 54.2411 51.1126 54.5856C48.7105 55.7052 46.9276 57.1375 46.4008 57.5772C46.1554 57.782 45.8741 57.8425 46.2622 57.4953C48.9004 55.1353 50.2624 54.5896 51.2353 54.4114C51.5769 54.3488 51.0624 55.3764 51.0611 55.9481C51.0605 56.1871 51.4083 56.2583 51.6736 56.216C52.9033 56.0203 53.6103 54.5051 54.2718 53.8397C56.3434 51.7557 52.8235 61.0057 52.7773 62.3721C52.7667 62.6852 52.908 62.9437 52.9529 62.9041C53.806 62.1513 54.0513 60.4037 54.4909 59.1733C54.6801 58.6437 54.7563 58.2914 54.8011 59.5059C55.0648 66.6392 55.2843 67.6964 55.6368 68.7538C55.7253 69.0192 55.8124 69.2806 55.7266 69.2846C54.6047 69.3363 54.846 65.7847 54.3642 64.0091C54.0291 62.7744 52.9133 61.6341 51.9456 60.7522C51.6689 60.5001 51.4188 60.1396 51.2406 60.2651C49.7407 61.3206 51.9311 65.3887 52.6902 66.8237C54.027 69.3509 51.065 62.6057 50.7548 61.1073C50.4774 59.7674 50.0934 58.4656 49.9627 57.6735C49.7676 56.4914 46.8457 58.0168 44.8206 58.5026C43.7537 58.7585 42.7927 59.0756 42.2634 59.2947C41.1395 59.76 44.8073 60.7469 46.3031 60.9238C47.6048 61.0778 48.7679 61.539 49.8254 61.7173C51.2371 61.9552 51.9363 59.3475 52.6453 58.5937C53.8321 57.3317 49.0425 60.1291 47.985 60.5291C46.58 61.0606 47.0147 58.2016 46.9685 57.4055C46.8677 55.6693 49.1217 61.6235 49.5217 62.5503C49.3937 62.685 48.958 62.685 48.6029 62.6414C48.2478 62.5978 47.9864 62.5107 47.717 62.4209" stroke="#E07C22" stroke-width="3" stroke-linejoin="round"/>
<path d="M46.3969 14.6302C46.1328 14.8916 45.7843 15.9451 45.2549 17.0026C44.6631 18.1847 44.1103 19.1135 43.2759 20.171C42.4729 21.1887 41.8237 22.282 41.0752 23.3394C40.6627 23.9221 40.2369 24.3969 40.1049 24.6187C39.5772 25.5052 41.5491 22.3823 42.4337 21.2351C42.6284 20.9825 42.7848 20.7083 42.7439 20.6172C42.62 20.3414 41.9109 20.8773 41.4712 21.272C40.6211 22.0354 40.2395 23.3381 39.5345 24.3956C38.6661 25.6982 37.1608 27.0346 36.6288 28.1357C36.3327 28.7484 36.1892 29.4136 35.7944 29.8968C35.0288 30.834 33.7284 31.085 32.6709 31.5272C32.1586 31.7415 31.6134 32.054 31.1738 32.5807C29.8622 34.1523 30.9929 37.5961 31.3019 38.9586C31.879 41.5039 31.8748 44.1812 32.0055 47.3061C32.0491 48.3471 32.3976 48.2527 32.663 48.1642C33.7204 47.8117 34.7739 47.6348 35.8314 47.3721C36.9132 47.1033 37.9424 46.8427 38.9999 46.3608C40.0937 45.8624 41.1108 44.9099 42.1683 44.1614C43.3153 43.3495 44.2793 42.7079 45.1176 41.9171C45.9265 41.154 46.9196 40.4213 47.9771 39.6728C49.0358 38.9233 50.0881 38.7473 51.4083 38.4384C52.7976 38.1133 53.8744 37.3426 54.7985 36.2852C55.6516 35.309 56.0765 34.1742 56.4725 33.1167C56.8943 31.9904 57.5709 31.0058 58.4066 29.8612C59.6023 28.2234 60.301 27.3092 60.6971 26.2518C61.1332 25.0873 61.3572 23.8768 61.3598 22.6001C61.3624 21.3377 59.868 20.4443 59.0733 19.3868C58.3097 18.3708 57.4917 17.6244 56.9597 16.7464C56.8147 16.5072 56.7841 16.2197 56.6956 16.2157C55.8331 16.1771 56.1662 19.4515 55.8599 21.2272C55.648 22.4556 54.4975 23.5124 51.5139 25.7118C49.8533 26.936 48.5144 28.001 47.4134 28.7535C46.6963 29.2437 46.1355 29.7674 45.7394 29.7252C44.5599 29.5994 46.3071 26.9607 47.5349 24.9804C47.9531 24.3058 48.4986 23.449 48.6372 22.9566C48.7758 22.4642 48.5144 22.377 48.2491 22.3321C47.9837 22.2873 47.7223 22.2873 47.5441 22.113C47.3659 21.9387 47.2787 21.5902 47.0596 21.4978C45.541 20.8574 44.2001 23.8662 43.2324 24.8801C42.3476 25.8071 41.3854 26.7706 39.9332 28.2664C38.9429 29.2864 38.217 30.6414 37.0275 32.0078C36.1339 33.0343 34.7898 34.9505 33.5937 35.666C32.9867 36.0292 33.3719 34.1716 33.3706 33.6448C33.3674 32.3746 34.5997 31.5338 35.4802 30.4764C36.2137 29.5955 36.2737 28.3654 36.7133 27.3079C37.2416 26.0373 38.4705 25.3712 39.2652 24.4035C40.0425 23.4571 40.9313 21.944 42.2119 20.6634C43.447 19.4283 44.1948 18.8574 44.2846 18.5485C44.5973 17.4722 42.4416 19.9954 41.5597 21.0067C40.4315 22.3003 39.5372 23.1639 38.7424 24.1316C37.8892 25.1704 37.3351 26.5066 36.6737 27.564C36.0569 28.5502 35.7482 29.4136 35.5727 29.679C35.1137 30.3725 35.4816 27.8373 35.8341 26.7798C36.1865 25.7224 36.8862 24.8431 37.7246 23.919C38.6072 22.946 39.7906 22.377 40.8481 21.7618C41.9067 21.146 42.9591 20.7928 43.9294 20.8773C44.1778 20.8989 44.1948 21.4001 44.1961 21.7103C44.201 22.8669 43.3182 24.0405 41.8264 27.1601C41.1081 28.662 40.3293 29.675 39.7537 30.7325C39.4624 31.2677 38.5708 32.2256 37.7325 33.1511C36.8478 34.1277 41.1003 29.9602 42.9155 28.3205C44.1267 27.2265 44.6331 25.9891 45.1216 25.63C46.1854 24.8479 43.1439 27.7396 41.3524 29.576C37.5375 33.4866 34.5178 35.7531 34.0782 35.9274C31.8567 36.808 34.0716 41.995 34.3383 43.1422C34.5997 43.669 34.8664 44.1997 34.9984 44.77C35.0433 45.0789 35.0433 45.4275 35.5713 45.7866" stroke="black" stroke-width="3" stroke-linejoin="round"/>
<path d="M33.9871 46.3146C34.2485 45.8763 36.1733 44.9997 37.7232 44.205C39.0219 43.539 40.0547 42.7977 41.1122 41.8735C42.1799 40.9404 43.4872 39.983 46.7361 38.0925C48.4338 37.1047 49.9983 36.1967 51.3211 35.0099C52.3327 34.1023 52.644 32.6798 53.2156 31.489C53.7948 30.2825 54.1384 28.9832 54.5807 27.7924C55.0422 26.5497 55.1101 25.461 55.5484 24.055C56.0171 22.5515 55.551 21.2338 55.3754 20.707C55.287 20.4417 55.1998 20.1803 54.9371 20.1763C52.7451 20.1432 51.2446 24.4735 50.8419 26.2425C50.5443 27.5502 50.36 28.4446 49.8333 29.0598C49.5886 29.3456 49.3065 29.5008 49.0412 29.0677C47.1584 25.9954 48.4194 23.2589 48.0299 23.3843C42.9381 25.0241 42.7056 29.3212 42.3927 30.7312C42.0281 32.3745 40.9418 33.8996 40.1075 35.0006C39.2126 36.1816 38.6553 37.5064 36.5918 39.7058C35.4902 40.88 34.605 41.5567 34.296 42.6142C33.9972 43.6371 33.9871 44.8123 34.1178 45.5186C34.4429 47.2752 34.9535 41.393 35.0868 39.3691C35.1162 38.9231 35.2175 38.6628 35.1753 38.6589C35.133 38.6549 34.9588 38.9163 34.869 39.1817C34.7792 39.447 34.7792 39.7084 34.9535 39.5817C36.4615 38.485 38.1061 35.0719 39.5306 33.5088C41.8287 30.9871 35.133 40.3263 34.9997 40.8979C34.9482 41.1188 35.302 41.2082 35.5674 41.253C36.0886 41.3412 36.8862 40.7751 37.6784 40.1137C37.9109 39.9196 37.9477 40.2365 37.817 40.5019C37.1908 41.7732 36.279 42.7026 35.9687 43.0564C34.8812 44.2966 38.819 40.6009 40.4059 39.0167C42.7565 36.6699 43.2231 33.3874 44.4126 31.6223C45.1296 30.5584 45.515 29.5958 45.7354 29.2856C46.5545 28.133 44.4641 32.3999 43.4964 34.1188C42.5292 35.8368 42.1723 37.5961 42.1274 38.6114C42.0634 40.0574 44.7176 36.5505 46.917 34.3538C48.1839 33.0883 48.4194 31.7979 48.5527 30.7404C48.5864 30.4736 48.6834 30.2137 48.5976 30.4711C47.8589 32.6872 46.7559 34.4224 45.2113 36.2337C43.7496 37.9478 49.1112 33.1233 50.5739 31.6659C51.9592 30.2856 51.8519 28.6294 52.5991 27.7013C53.3968 26.7106 52.0314 30.3774 51.4598 31.7438C51.2233 32.309 51.0624 32.9332 51.0611 33.5484C51.0605 33.8286 51.4083 33.9894 51.7608 34.0792C52.1133 34.1689 52.5489 34.1689 52.904 33.9947C54.3621 33.2792 54.8408 31.5338 56.0738 30.0381C56.9312 28.998 57.1326 27.6631 57.7042 26.5158C57.9589 26.0047 58.0145 23.3672 58.0145 20.1076C58.0145 19.4222 58.4528 22.1922 58.6733 23.2959C58.7237 23.5483 59.0653 23.6919 59.2436 23.651C60.3247 23.4028 59.0706 20.9724 58.8515 19.8278C58.7847 19.4788 58.8066 19.0396 58.6759 18.7281C58.5452 18.4165 58.2838 18.2422 58.0184 18.1089C57.7531 17.9755 57.4917 17.8884 57.357 18.6713C56.5952 23.1006 58.0145 25.0913 57.3135 27.3845C56.9053 28.7196 56.3458 30.1133 55.4652 31.5233C54.65 32.8285 53.7952 34.1637 53.176 35.2211C53.0152 35.4957 52.739 35.7479 52.5608 35.7083C48.4146 34.7869 51.8571 24.5738 51.1984 24.925C49.6777 25.7356 48.2504 27.737 47.0173 30.2414C46.2226 33.1946 45.5202 35.13 44.5526 36.672C44.2872 36.9836 44.0258 37.1578 44.0205 36.8093" stroke="black" stroke-width="3" stroke-linejoin="round"/>
<path d="M63.2952 14.8942C63.4695 15.4197 64.1718 16.4732 65.0524 17.3115C65.3177 17.7934 65.5818 18.3241 65.9765 18.8508C66.197 19.1162 66.4584 19.3776 67.2558 20.175" stroke="black" stroke-width="3" stroke-linejoin="round"/>
<path d="M65.9356 17.5346C66.6353 17.9703 67.8683 19.3776 68.836 20.2159C70.0357 21.2552 70.9497 22.1104 71.1279 22.0245C72.7522 21.2425 69.0195 19.4779 68.3581 18.3307C68.2098 18.0734 68.1377 17.8039 68.2235 17.5821C68.6289 16.5341 70.4189 16.8323 71.4764 16.6554C72.0564 16.5583 72.5339 16.0401 72.9735 15.9068C73.1485 15.8537 73.2389 16.2091 73.2402 16.4745C73.1544 17.0012 72.9775 17.6191 72.7583 18.2779C72.6263 18.5881 72.452 18.8495 72.0084 19.3829" stroke="black" stroke-width="3" stroke-linejoin="round"/>
<path d="M63.0312 14.6302C63.5566 14.8045 64.6101 15.5068 65.4062 16.4323C66.1528 17.3002 64.0002 14.6329 63.6939 14.2368C63.5366 14.0333 63.1262 14.1021 63.2081 14.3635C63.8075 16.2778 64.7897 17.0013 65.6676 17.796C66.5962 18.6367 67.5145 19.6416 68.572 20.6555C69.497 21.5424 70.2447 22.546 71.2124 23.3408C71.7016 23.7426 72.2698 23.8715 72.7095 24.0022C73.7292 24.3054 73.9412 25.9785 74.1643 27.036C74.4049 28.1765 74.559 29.411 74.6924 31.1259C75.0871 32.3181 75.6152 33.1102 76.0099 33.5498C76.2304 33.728 76.4918 33.8151 76.7611 34.169" stroke="black" stroke-width="3" stroke-linejoin="round"/>
<path d="M27.3862 67.1735C27.6476 66.6481 28.7011 65.7689 29.3203 64.8883C29.9547 63.986 31.5157 63.308 32.663 62.4671C33.5741 61.7992 34.7739 61.7185 36.0506 61.7595C37.5448 61.8074 38.0322 64.1741 38.7807 65.3213C39.7062 66.3788 40.4085 67.4323 41.1135 68.4898C41.2904 68.7551 41.4646 69.0165 41.9082 69.5499" stroke="black" stroke-width="3" stroke-linejoin="round"/>
<path d="M31.3467 70.342C31.1725 70.8674 30.8187 71.921 30.5124 72.9784C30.1656 74.1758 29.3242 75.0894 28.6654 76.1033C27.9856 77.1496 26.8634 77.6453 26.2442 78.4796C25.5569 79.4058 24.7511 80.1959 23.9564 81.1636C23.1497 82.1457 22.7233 83.2745 22.1081 84.332C21.5115 85.3575 20.611 85.9149 19.9958 86.9724C19.3567 88.0709 18.5885 89.0834 17.9271 90.1408C17.328 91.0986 17.0043 92.2518 16.2993 93.3093C15.5943 94.3667 14.7177 95.246 14.1421 96.2137C13.4666 97.3493 12.6054 98.5887 12.0734 99.6462C11.5587 100.669 11.1057 101.757 10.7967 102.815C10.47 103.933 10.0495 105.364 9.69703 106.511C9.36966 107.577 8.99337 108.622 8.64089 109.68C8.2884 110.737 8.11149 111.791 7.84877 112.848C7.25422 115.241 7.40915 119.184 7.27581 121.775C7.20443 123.163 6.88108 124.2 6.74774 125.258C6.60997 126.35 6.26323 129.808 6.48238 133.867C6.95797 142.674 6.79131 143.739 7.01046 145.232C7.48422 148.46 6.79131 149.548 6.57216 150.91C6.15859 153.481 6.26323 158.398 7.09495 160.949C7.1991 161.268 7.7524 161.255 7.97551 161.476C8.38316 161.879 8.20126 162.75 8.28576 163.851C8.41206 165.497 10.4825 165.744 11.3644 166.668C12.3933 167.746 13.651 168.21 14.7085 168.782C15.7022 169.319 16.8194 169.704 17.8333 170.234C18.8557 170.768 19.7238 171.553 20.5622 172.433C21.4164 173.33 23.1563 172.963 31.2266 173.009C34.512 173.028 37.3245 172.614 41.9782 172.481C43.2295 172.445 45.148 172.26 47.8306 172.217C51.7493 172.153 56.689 171.822 57.9643 171.513C60.0673 171.004 61.1776 170.856 62.2351 170.413C63.2916 169.971 64.3461 169.271 65.4036 168.566C66.4226 167.887 67.5145 167.423 68.572 166.937C69.6849 166.426 70.4189 165.485 71.9147 164.256C72.8989 163.447 73.6772 162.496 74.3821 161.439C75.0871 160.381 75.6152 159.328 75.9677 158.27C76.3202 157.213 76.8456 155.985 77.5506 154.838C78.17 153.83 78.2556 152.727 78.608 151.669C78.9605 150.612 79.1374 149.21 79.3566 147.929C79.5753 146.651 79.9295 145.598 80.1923 144.54C80.461 143.459 80.8959 142.429 81.2484 141.372C81.6106 140.285 82.2161 139.261 82.5686 138.203C82.9134 137.169 83.0082 136.093 83.3171 134.729C83.6593 133.218 83.6261 131.783 83.8452 129.936C84.344 125.733 84.1541 121.861 83.8914 119.457C83.7703 118.349 83.1878 117.346 82.6161 116.288C82.0789 115.295 81.8676 114.177 81.4715 113.12C81.0497 111.994 80.5474 111.009 79.9322 109.952C79.2678 108.809 78.4351 107.841 77.6443 107.002C76.6657 105.965 75.0977 104.06 74.0798 102.91C73.3901 102.13 72.5418 101.414 71.5279 100.665C70.5749 99.9617 69.8117 99.1273 68.844 98.289C67.824 97.4054 66.733 96.751 65.7191 96.1318C64.7348 95.5307 63.8286 94.813 62.7711 93.8888C61.7556 93.0014 60.8344 91.9983 59.472 90.5026C58.4788 89.4122 57.666 88.3018 56.961 87.2443C56.256 86.1869 55.5537 85.1334 54.6731 84.295C53.8455 83.5072 53.4414 82.229 52.7364 81.1715C52.0314 80.114 51.3291 79.0605 50.3614 78.2658C49.4149 77.4885 48.2504 77.1225 47.1494 76.7238C45.9414 76.2864 44.8179 76.2406 43.7604 75.8881C42.703 75.5356 41.6495 75.1845 40.592 74.6128C39.5982 74.0756 38.481 73.8643 37.4236 73.6874C36.2169 73.4855 35.4868 72.1956 34.7383 71.1816C34.0347 70.2286 33.3745 69.2911 32.5824 68.3644C32.3899 68.1391 31.9699 68.2297 31.6596 68.3168C31.3494 68.404 31.088 68.5782 30.9098 68.7987C29.7046 70.2896 30.7289 73.5052 31.0814 74.5626C31.4339 75.6201 31.785 76.6736 32.094 78.6024C32.9586 84.0007 31.8748 85.1228 30.4728 89.9058C29.859 91.9998 28.1889 94.3535 26.3802 97.3081C25.2675 99.1257 24.3075 100.173 23.4732 101.45C22.7695 102.526 22.285 103.605 21.7556 105.013C21.0747 106.823 20.611 108.179 19.8638 110.511C19.2481 112.433 18.7627 115.482 18.5858 117.859C18.4049 120.291 17.7066 121.824 17.5733 122.925C17.4173 124.212 17.0043 126.128 16.7811 127.678C16.5473 129.302 16.3864 131.24 16.2531 132.912C16.1163 134.628 15.5045 135.992 15.0662 138.717C14.7963 140.395 14.4484 143.021 14.2292 146.234C13.6562 154.636 14.8867 155.885 15.02 156.986C15.1909 158.396 15.9428 159.581 16.6452 160.901C17.4945 162.498 19.106 163.103 21.3463 164.115C23.2379 164.969 26.7472 165.131 30.7025 165.001C35.8619 164.83 39.1728 164.165 40.7583 164.032C42.0497 163.923 43.3974 163.283 44.8074 163.064C47.888 162.585 52.9872 160.912 54.8381 160.249C57.9021 159.152 59.5934 157.744 60.6945 156.949C62.011 155.998 63.1157 154.839 63.9962 153.563C64.6906 152.556 65.228 151.407 66.1085 149.999C67.0629 148.474 66.8122 146.311 67.43 143.227C67.7788 141.486 67.9581 140.053 68.0915 136.147C68.1543 134.307 68.576 132.75 68.7951 130.949C69.3224 126.616 68.576 125.357 66.1217 120.221C65.1288 118.144 63.7441 116.385 62.3764 114.75C60.5942 112.621 59.868 111.273 57.9775 108.638C56.9028 107.14 55.9972 105.469 55.3319 104.143C54.7396 102.962 53.9694 101.768 53.2209 99.9656C52.4868 98.1984 51.8571 97.015 50.9766 95.3001C50.3808 94.1397 49.9191 93.0545 49.3475 91.997C48.8119 91.0063 48.0708 90.1501 47.1058 88.7863C45.9334 87.1295 44.3796 86.7176 43.1452 85.7908C41.9339 84.8814 40.5933 85.3921 39.5794 85.9611C38.497 86.5686 38.8296 88.4655 38.5206 90.2676C37.9614 93.5297 38.2117 94.9767 37.9926 96.2137C37.7743 97.4456 37.2453 99.027 37.112 100.174C36.9873 101.247 36.543 102.285 36.2763 103.825C36.0168 105.322 35.4868 106.684 34.8254 108.751C34.3651 110.19 34.0769 111.262 33.6808 112.583C33.2759 113.932 32.8465 115.133 32.3606 116.719C31.8107 118.513 30.9982 120.768 30.7315 122.262C30.3366 124.476 29.7678 126.74 29.4549 128.689C29.2423 130.013 28.8859 131.239 28.6628 132.606C28.4679 133.8 28.2681 135.2 28.0912 136.478C27.8013 138.572 27.476 140.307 27.167 142.021C26.8912 143.553 26.5941 147.24 26.3749 150.027C26.0809 153.766 27.0324 155.003 27.6476 156.15C28.2975 157.362 29.9315 158.261 31.1659 158.793C33.913 159.977 38.3807 158.884 39.6151 158.751C41.6809 158.528 44.6225 157.215 46.3916 156.464C48.17 155.709 50.5264 155.013 52.1106 154.484C54.4891 153.689 55.8969 153.339 57.7874 153.38C58.2094 153.389 58.363 153.772 58.4528 154.299C58.8968 156.905 57.666 158.525 57.2237 159.583C57.0095 160.095 56.9583 160.64 57.1326 161.167C57.5864 162.538 61.2463 162.227 63.9923 161.745C64.4485 161.665 64.7844 161.525 65.0075 161.349C65.9513 160.606 66.1099 159.064 66.7251 157.744C67.3417 156.42 68.0426 154.67 68.4862 153.166C68.9911 151.455 70.1549 150.44 71.1688 147.759C71.7355 146.26 72.0084 144.721 72.5339 142.827C72.9243 141.419 73.9412 140.317 74.559 138.383C74.9393 137.193 74.9128 132.259 74.0362 126.772C73.7107 124.734 73.1544 122.98 73.021 121.614C72.8538 119.9 71.7444 117.7 71.3946 116.378C70.8376 114.274 69.9014 112.598 68.9311 110.614C68.2725 109.268 67.4353 107.841 66.6868 106.783C65.8749 105.636 65.2333 104.672 62.4265 101.642C60.6224 99.6947 58.3736 97.7174 57.4455 96.8368C56.6166 96.0503 55.3794 95.7793 53.6645 95.0321C52.458 94.5064 50.9805 94.3694 49.3092 94.1502C46.5101 93.7832 44.2106 93.8413 42.7043 94.0605C41.6356 94.2159 40.5933 94.8077 39.4923 95.1166C38.2553 95.4637 37.1608 95.5998 35.8842 95.9958C34.6976 96.364 33.5541 97.2685 31.4867 100.034C29.7913 102.302 29.3242 103.869 29.1909 104.927C29.0215 106.271 28.5321 107.83 28.3988 110.202C28.3223 111.562 27.74 112.583 27.2119 114.385C26.6497 116.303 26.4198 118.302 26.2865 119.449C26.1179 120.9 25.3637 123.139 25.0547 124.509C24.7507 125.858 24.4818 127.279 24.0435 129.303C23.7607 130.608 23.6897 132.729 23.2514 135.285C22.9404 137.098 23.0745 138.461 22.9424 140.861C22.825 142.997 22.8976 147.008 23.1154 149.857C23.4558 154.309 24.392 156.239 24.8303 156.854C26.1033 158.641 29.7572 157.3 31.1646 156.772C33.1491 156.027 35.9093 155.721 38.0718 154.398C40.1773 153.11 41.8132 153.25 47.1678 151.848C49.8737 151.139 52.1106 150.261 54.3972 149.556C55.9495 149.077 57.4758 148.064 58.9756 146.655C60.5163 145.208 61.8853 144.188 62.1493 143.093C62.9885 139.615 62.7671 137.941 62.1981 135.438C61.702 133.255 60.4859 130.912 58.7247 127.386C57.7185 125.371 56.8738 123.598 55.9497 122.187C54.8106 120.447 54.6718 119.194 53.6618 117.041C53.0314 115.697 52.5595 114.441 51.2868 110.711C50.6407 108.817 49.9191 107.666 48.9541 106.301C47.4776 104.213 45.3565 102.655 43.0594 101.238C42.6195 100.967 42.2673 100.712 41.8699 100.795C39.1594 101.362 38.8296 106.066 38.6962 109.012C38.5388 112.488 38.3015 116.364 38.1681 121.37C38.1089 123.595 37.5991 126.038 37.3325 128.071C37.0289 130.385 36.543 132.29 36.3199 133.97C36.0294 136.156 35.9251 139.161 35.9225 144.559C35.9213 146.989 37.0658 147.964 38.2936 149.197C39.8469 150.757 43.3868 149.294 45.5546 148.237C47.4837 147.296 49.5495 144.109 51.1891 142.692C52.6343 141.444 52.7337 138.738 52.2083 133.354C51.8558 129.742 51.8571 123.107 51.4624 118.04C51.0677 112.973 50.4577 109.662 49.8386 107.216C48.3503 101.336 47.2787 100.709 46.8404 100.444C46.6145 100.307 46.2279 100.701 46.0048 101.01C44.7681 102.722 44.2001 107.371 44.0641 112.22C43.9846 115.054 44.3717 116.894 44.5037 120.476C44.6132 123.446 44.5486 128.763 44.505 131.675C44.4417 135.91 44.1103 137.666 43.977 140.915C43.8463 141.891 43.7565 142.421 43.7129 142.948C43.6693 143.214 43.5822 143.475 43.4924 144.008" stroke="black" stroke-width="12" stroke-linejoin="round"/>
<path d="M30.2906 109.948C30.0266 110.911 29.8523 112.319 29.719 113.42C29.563 114.707 29.15 115.751 28.9268 117.685C28.7632 119.104 28.5321 120.678 28.573 122.877C28.5817 123.342 28.9651 123.498 29.2741 123.544C29.583 123.59 29.9315 123.503 30.1982 123.328C31.1995 122.668 31.257 121.306 31.8286 120.249C32.3658 119.255 32.4029 117.964 32.622 116.163C33.1496 111.828 31.9646 110.745 31.3058 109.775C30.9968 109.319 30.2061 109.419 29.5909 109.55C29.3004 109.612 29.15 109.942 29.0166 110.208C28.7064 113.356 28.6192 118.394 28.5308 118.921C28.5295 119.186 28.6166 119.448 28.7064 119.981" stroke="white" stroke-width="6" stroke-linejoin="round"/>
<path d="M25.5379 89.0886C24.2204 89.1758 23.1669 89.7012 22.1094 90.4062C21.0519 91.1112 19.9984 91.6392 18.941 92.0353C18.6634 92.1392 18.4142 92.3416 18.4103 92.5185C18.4063 92.6954 18.6677 92.8696 18.9766 92.9159C20.2587 93.1076 21.6566 92.3469 22.8936 91.9944C23.995 91.6805 25.0046 90.8524 25.8006 90.2346C26.4233 89.7513 23.959 90.5831 22.9015 90.9791C21.8117 91.3873 20.7905 91.8135 19.7331 92.2993C18.6402 92.8014 17.4478 93.2235 16.3006 93.5324C16.0407 93.6024 15.7738 93.5773 15.5521 93.4466C14.5276 92.8429 14.2741 91.4703 13.9652 90.195C13.8509 89.7233 13.9203 89.0147 14.051 88.6121C14.1817 88.2094 14.4431 88.1223 14.5778 88.2081C15.3626 88.7082 15.7633 90.1395 16.8643 90.628C18.0387 91.149 21.1127 90.9369 23.2012 90.7177C23.5117 90.6852 23.8587 90.6729 24.0818 90.5422C24.656 89.6194 25.097 88.8272 25.0983 88.4748C25.0125 88.3837 24.7511 88.4708 24.4818 88.5606" stroke="#E07C22" stroke-width="4" stroke-linejoin="round"/>
<path d="M23.4256 122.093C23.4256 123.316 22.9028 125.61 22.1517 126.578C21.9696 126.813 21.9312 127.105 21.9299 127.37C21.9285 127.635 22.0157 127.897 22.322 128.031C22.6282 128.166 23.151 128.166 23.5511 128.079C23.9511 127.992 24.2125 127.818 24.3907 127.597C24.7365 127.169 24.7458 126.236 24.6587 125.181C24.5478 123.838 23.2514 123.416 22.8131 123.02C22.3477 122.6 21.4929 122.973 20.8341 123.192C19.7667 123.547 19.1218 125.341 18.1462 126.315C17.4376 127.023 19.9879 127.284 21.4836 127.33C22.1002 127.2 22.6309 127.023 23.1141 127.022C23.3359 127.107 23.5101 127.369 23.6897 127.638" stroke="#E07C22" stroke-width="4" stroke-linejoin="round"/>
<path d="M27.3862 127.638C27.8245 127.899 28.7011 128.953 29.2331 130.01C29.7341 131.006 29.9368 132.121 29.983 133.398C30.0244 134.542 29.15 135.728 28.1823 136.656C27.667 137.15 27.2119 137.669 26.9043 138.196C26.6164 138.689 26.5941 139.95 26.7683 141.446C26.8337 142.007 27.2911 142.07 27.6014 142.072C27.9116 142.073 28.173 141.986 28.3512 141.81C29.137 141.036 29.7572 139.615 30.5084 138.248C31.0885 137.193 31.521 136.092 31.6543 133.939C31.7614 132.211 31.7006 130.284 31.0418 129.313C30.3459 128.288 28.4476 128.784 27.3902 128.431C27.1248 128.343 26.8634 128.256 26.598 128.124C26.3327 127.992 26.0713 127.818 25.5379 127.638" stroke="#E07C22" stroke-width="4" stroke-linejoin="round"/>
<path d="M36.0994 121.565C36.6248 121.652 39.421 121.829 42.2039 122.048C43.2946 122.134 45.214 122.093 46.2015 122.79C49.3831 125.036 46.7507 127.633 46.3546 128.69C45.9174 129.858 44.9922 130.801 44.2436 131.815C43.8732 132.317 42.9697 132.391 42.0033 132.347C40.454 132.277 39.2731 131.25 38.2592 130.501C37.2554 129.76 36.7173 128.699 36.3648 127.642C35.9663 126.447 35.9251 125.003 35.9225 123.507C35.9213 122.838 36.4506 122.36 36.7133 121.877C36.8484 121.628 37.1503 121.481 37.4156 121.478C38.6377 121.466 39.3523 123.144 40.0573 124.245C40.4592 124.873 40.588 125.959 40.7623 127.058C40.831 127.492 41.2851 127.548 41.6389 127.55C42.9496 127.554 43.7512 126.233 44.2832 125.266C44.418 125.021 44.4588 124.739 44.1552 124.604C42.2648 123.766 40.8574 124.734 39.4065 125.259C38.3258 125.65 37.248 125.79 36.6314 125.92C36.4132 125.967 36.5377 126.313 36.7133 126.534C37.5075 127.537 39.083 128.773 40.625 129.441C41.1499 129.669 42.0666 129.486 42.6026 129.356C43.1386 129.225 43.3129 128.963 43.4027 128.698C43.4924 128.433 43.4924 128.171 43.4924 127.902" stroke="#E07C22" stroke-width="4" stroke-linejoin="round"/>
<path d="M18.673 126.054C19.4624 126.141 20.5159 126.666 21.5734 127.284C22.5734 127.868 24.994 127.638 26.5901 127.2C26.8602 127.126 27.1169 127.11 27.2951 127.241C28.153 127.87 28.4397 128.956 28.7051 129.395C28.7972 129.548 28.4476 129.661 28.1823 129.662C27.0927 129.667 26.0713 129.048 25.0138 128.476C23.9706 127.912 22.6388 127.992 21.3622 127.683C20.2831 127.422 19.4677 127.374 19.2459 127.374C18.2224 127.374 21.3081 128.076 22.3655 128.648C23.3593 129.185 24.4765 129.396 25.534 129.749C26.0607 129.925 26.5914 130.189 27.1182 130.54C27.3835 130.717 27.6449 130.891 28.4423 131.335" stroke="#E07C22" stroke-width="4" stroke-linejoin="round"/>
<path d="M31.0827 176.221C32.4847 176.485 34.5944 176.311 36.0506 176.177C37.1903 176.073 38.9035 175.693 40.32 175.43C41.416 175.227 47.6589 174.901 51.1469 174.113C52.3865 173.832 52.3799 172.263 52.644 171.736C52.7695 171.486 52.7337 171.209 52.603 171.031C51.9979 170.206 50.4525 170.238 46.1935 170.192C44.2746 170.171 43.0594 170.761 41.6495 171.246C39.1194 172.118 35.5766 172.788 34.3 173.227C33.244 173.589 32.1441 173.755 31.0867 174.326C30.8254 174.468 30.5599 174.547 30.3817 174.722C30.2035 174.898 30.1163 175.159 30.2021 175.294C30.7343 176.129 35.1858 175.693 38.1615 175.254C39.6115 175.041 41.5439 174.901 43.3538 174.682C45.328 174.442 46.3916 174.198 47.9309 173.889C49.5426 173.566 50.8828 173.229 51.2353 172.923C52.2002 172.085 50.9753 170.417 50.5792 169.36C50.4752 169.082 50.2729 168.833 50.0089 168.611C48.2739 167.154 42.5525 168.907 40.0217 169.838C38.4253 170.425 37.1608 170.676 35.4024 171.334C34.063 171.834 32.762 172.081 31.6583 172.61C31.4033 172.732 31.2623 173.047 31.3032 173.269C31.5705 174.717 35.1225 173.67 39.953 173.537C42.5181 173.316 44.2793 173.142 47.3091 173.009C47.9784 172.965 48.2398 172.878 48.5091 172.788" stroke="#E07C22" stroke-width="4" stroke-linejoin="round"/>
<path d="M31.8748 173.58C31.7006 173.58 31.3494 173.668 30.8662 173.93C29.877 174.468 30.1163 175.952 29.4127 176.79C29.2593 176.973 29.4087 177.272 30.2378 177.406C32.608 177.791 34.5125 177.628 37.174 177.76C44.0966 178.104 49.0346 177.718 49.6485 177.586C50.4203 177.42 51.1469 177.454 51.7172 177.191C52.4342 176.861 52.908 176.223 53.2156 175.697C53.5259 174.291 53.1773 172.53 52.7351 171.472C52.6466 171.207 52.5595 170.945 52.4697 170.676" stroke="#E07C22" stroke-width="4" stroke-linejoin="round"/>
<path d="M59.8627 16.7425C60.1241 17.0937 60.8291 17.7934 61.2252 18.8508C61.6624 20.0182 62.5876 20.9618 63.249 22.0193C63.4695 22.546 63.6464 23.0767 63.822 23.6035C63.9104 23.8689 63.9976 24.1302 64.3514 24.6636" stroke="#E07C22" stroke-width="2" stroke-linejoin="round"/>
<path d="M64.8794 24.9276C64.8794 25.2761 64.8794 25.8913 64.7923 26.6821C64.653 27.9461 63.385 28.6188 62.5942 29.4572C62.3997 29.6634 62.3288 29.939 62.1533 30.1173C61.9777 30.2955 61.7163 30.3826 61.6688 30.2968C61.1838 29.4213 62.8516 28.3654 63.3388 27.5693C62.5058 28.4446 61.8008 29.4136 61.4932 29.9404C61.3598 30.2057 61.2727 30.4671 61.1829 30.7364" stroke="#E07C22" stroke-width="2" stroke-linejoin="round"/>
<path d="M60.9189 17.0065C60.3935 16.8322 59.6885 15.9556 58.8541 14.8982C58.4459 14.3808 58.0171 14.015 57.7518 13.8394C57.4919 13.6674 58.9756 13.574 59.5089 13.574C59.6726 13.574 58.2996 13.574 57.8917 13.5305C57.4838 13.4869 57.7452 13.3998 58.2719 13.3549C58.7987 13.31 59.5829 13.31 59.9868 13.615C60.3908 13.9199 60.3908 14.5298 60.2601 14.8876C60.1294 15.2454 59.868 15.3325 59.6027 15.2903C59.3373 15.248 59.0759 15.0738 58.9412 15.1147C58.1429 15.3573 59.2449 17.0012 60.0357 17.8395C60.8197 18.6707 61.2674 19.9056 62.016 20.9195C63.015 22.2728 64.6128 23.1665 65.1395 23.2985C65.4006 23.3639 65.6663 23.3434 65.8009 23.0384C65.9356 22.7335 65.9356 22.1235 66.1099 21.8529C66.2841 21.5823 66.6326 21.6694 66.9429 21.8014C68.0393 22.268 68.2221 23.6022 68.6195 24.3982C69.4068 25.9754 65.5871 21.2364 64.8385 20.266C64.618 20.0878 64.3566 20.0007 64.0913 19.8251C63.8259 19.6495 63.5645 19.3881 63.0312 19.1188" stroke="#E07C22" stroke-width="2" stroke-linejoin="round"/>
<path d="M43.4924 56.084C43.4924 56.6094 43.3182 57.6629 43.3155 60.0789C43.3137 61.7781 45.0714 62.6796 46.348 63.8691C47.3632 64.5305 48.2398 65.584 49.5165 66.7735C49.8267 66.9966 50.0881 67.0838 50.6214 67.7016" stroke="#E07C22" stroke-width="2" stroke-linejoin="round"/>
<path d="M79.4015 96.7457C80.0167 97.0071 80.7164 97.8863 81.4676 98.854C82.1603 99.7464 82.3904 100.965 82.6135 101.761C82.6914 102.039 82.8339 100.102 82.9211 98.5161C82.9464 98.0556 83.1825 98.3246 83.2723 98.9821C83.6845 102.001 83.6261 103.077 83.8901 103.83C84.3738 105.208 82.2214 101.504 81.3844 100.665C80.6731 99.953 80.2834 98.8633 79.6681 97.8058C79.029 96.7073 78.2608 95.6948 77.5123 94.6809C76.7935 93.7073 75.4462 93.4928 74.3887 93.0505C73.8765 92.8363 73.3313 92.6109 73.0659 92.434C72.2913 91.9176 74.4693 94.1 75.5677 94.8499C77.472 96.15 78.076 97.3583 78.6516 98.3259C79.2777 99.3785 80.4523 100.173 81.5098 101.187C81.7594 101.426 82.0366 101.583 82.3019 101.673C82.5673 101.762 82.8287 101.762 83.0069 101.632C83.362 100.36 83.1878 98.8606 82.8802 98.3339C82.7468 98.0685 82.6597 97.8071 82.3059 97.0097" stroke="#E07C22" stroke-width="2" stroke-linejoin="round"/>
<path d="M5.47112 170.412C5.99656 170.85 7.05006 171.553 8.10753 172.258C9.165 172.963 10.3928 173.491 11.54 174.062C12.5811 174.581 13.651 175.423 14.4457 176.481C14.6373 176.736 14.7969 177.008 14.8867 176.881C15.2657 176.346 14.8022 175.344 14.4075 174.773C13.769 173.848 12.3414 173.76 11.2839 173.055C10.2649 172.376 8.99866 172.086 7.41311 171.953C6.7851 171.9 6.17874 171.732 5.6071 171.602C5.35503 171.544 5.29686 171.209 5.38267 171.075C5.5828 170.761 6.26059 170.853 6.78735 170.765C7.8858 170.58 8.89832 171.817 9.95579 172.303C11.0487 172.805 12.0668 173.401 13.1242 174.149C13.4058 174.349 13.651 174.631 13.9163 174.81C14.1817 174.988 14.4431 175.075 14.5778 174.902C14.7124 174.729 14.7124 174.293 14.6253 173.938C14.3223 172.703 12.8694 172.176 11.812 171.69C10.7191 171.188 9.70099 170.94 8.64353 170.677C8.11677 170.502 7.58606 170.325 6.88504 170.193C6.44542 170.148 5.83549 170.148 5.20708 170.148" stroke="white" stroke-width="2" stroke-linejoin="round"/>
<path d="M4.67901 169.356C5.37871 169.356 6.52463 169.443 6.78999 169.575C6.00184 169.446 5.20972 169.005 4.63941 168.829C4.33048 168.741 3.98195 168.654 3.35883 168.564" stroke="white" stroke-width="2" stroke-linejoin="round"/>
</svg>
