<svg width="112" height="204" viewBox="0 0 112 204" fill="none" xmlns="http://www.w3.org/2000/svg">
<path d="M23.4814 77.6613C23.4814 80.9713 24.1414 87.6413 24.1514 93.3063C24.1647 100.809 21.8214 111.301 20.4864 115.646C19.2465 119.682 18.4814 123.641 17.6514 127.976C16.5801 133.572 16.4814 138.301 14.6564 142.646C12.7935 147.082 12.8214 152.641 12.3164 164.281C11.9385 172.993 12.8014 181.641 15.3064 185.646C17.5683 189.262 22.1214 191.981 26.4664 193.656C32.7372 196.074 42.4614 195.321 53.9364 195.331C59.8217 195.336 63.4614 192.001 67.3014 188.676C71.0883 185.397 71.1414 179.681 71.3164 154.761C71.3898 144.318 69.8214 137.681 68.4864 133.676C67.0792 129.455 66.8214 124.681 65.4864 120.676C64.1514 116.671 63.4814 112.681 62.3214 108.676C61.0953 104.443 59.8214 100.681 58.6514 96.5113C57.337 91.8264 56.1614 87.6813 53.3264 83.8413C51.9233 81.9408 45.5314 81.6613 37.8664 82.1563C35.1124 82.3341 34.8214 83.6413 34.4864 84.8113C32.0484 93.3263 32.8214 106.961 31.6514 113.956C29.0065 129.769 30.4814 135.301 29.6514 140.641C28.8781 145.616 28.4814 158.881 27.6514 168.306C27.3024 172.27 27.8114 175.651 29.4664 178.306C30.5921 180.112 33.1014 182.281 35.2814 183.471C37.4614 184.661 39.4414 184.661 41.2864 183.836C48.4531 180.632 52.1214 174.361 56.3014 168.351C60.7307 161.983 59.4814 139.181 57.4914 125.186C56.339 117.081 52.5014 109.381 50.4864 102.681C48.9012 97.4102 48.1514 93.6713 47.1564 92.6663C42.7537 88.2193 42.4814 107.961 39.9914 123.586C36.939 142.74 39.8214 148.961 39.3164 161.116C39.0026 168.671 39.1414 176.641 40.8064 180.481C41.2326 181.464 42.4614 181.981 43.7964 181.166C51.8776 176.233 51.8014 166.021 56.1314 158.526C63.9465 144.999 57.1614 121.041 55.3214 116.666C53.0514 111.269 51.4814 147.141 52.3114 159.811C52.6295 164.667 53.4814 168.641 54.4764 172.646C55.5494 176.965 55.8114 180.651 56.6414 181.326C63.9775 187.292 57.8214 156.701 57.1514 151.511C56.0014 142.603 50.1614 131.021 45.8314 118.376C43.7895 112.413 41.8214 108.681 39.6564 104.676C37.6219 100.913 36.1614 96.6813 33.3264 92.6763C30.2515 88.3323 27.1614 84.6813 26.3164 77.3563C26.0047 74.6538 25.8114 72.6713 26.8064 71.0063C29.6189 66.3001 39.4614 70.3213 43.4664 72.3213C45.277 73.2254 47.4714 73.6513 49.3014 75.6463C52.4965 79.1294 52.4814 83.6413 51.9864 86.9713C51.619 89.4432 44.8614 89.6613 37.3664 89.1663C30.7076 88.7265 27.5014 84.0013 23.8264 81.5063C22.9381 80.9032 22.8214 79.6813 22.8164 78.6763C24.1414 74.6713 26.4714 72.0013 28.4664 70.8363C29.4714 70.3313 30.4614 70.0013 32.4814 69.6613" stroke="black" stroke-width="16" stroke-linejoin="round"/>
<path d="M33.4814 56.6613C33.1514 56.6613 32.8214 56.6613 32.6514 56.1663C31.515 52.8573 33.4814 41.4213 31.3264 34.0063C29.7503 28.5832 18.5014 33.9813 14.6614 35.9863C13.7117 36.4821 13.1614 37.6413 13.4814 38.3163C17.3542 46.4854 36.4614 40.3213 47.6064 40.1663C49.8661 40.1348 50.1414 38.6813 49.9814 37.6763C49.8214 36.6713 49.1614 35.6813 48.3264 35.0063C44.4311 31.8573 37.5014 33.0013 25.1964 32.9913C19.151 32.9864 15.5014 36.9813 11.6614 38.9863C9.68146 40.0201 9.15143 42.6513 9.31143 44.4813C9.77219 49.7512 19.4614 47.3213 40.0664 47.3313C45.5515 47.3339 47.4714 45.3313 49.3014 44.3363C50.2427 43.8245 50.8014 42.6813 51.1414 41.3463C51.4814 40.0113 51.4814 38.3613 50.9864 37.1813C49.1412 32.7826 42.5014 33.0013 21.0664 32.9913C15.4141 32.9886 13.4914 34.9913 11.6614 35.9863C9.69912 37.0532 8.82143 39.6513 8.15143 41.6463C6.85543 45.5053 14.4614 47.6413 18.4664 49.6563C20.345 50.6014 24.1214 50.6613 28.4514 51.1563C36.4466 52.0703 32.1414 69.6513 33.6364 71.3163C34.3538 72.1152 35.4614 72.3213 36.3014 71.9963C37.1414 71.6713 37.8014 70.6813 38.3064 69.6763C38.8114 68.6713 39.1414 67.6813 38.4814 64.6613" stroke="black" stroke-width="16" stroke-linejoin="round"/>
<path d="M29.4814 47.6613C29.4814 48.3213 29.4814 50.9713 29.1514 54.9663C28.8214 56.6513 28.1614 57.6413 27.8214 61.4513C27.4814 65.2613 27.4814 71.8613 27.4814 78.6613" stroke="black" stroke-width="16" stroke-linejoin="round"/>
<path d="M18.4814 43.6613C18.4814 46.6413 20.4614 52.6413 23.4714 56.6463C26.3633 60.4941 28.1414 64.6413 29.4764 68.6463C30.9855 73.1734 30.8114 77.6513 31.8064 79.3163C32.7997 80.9784 37.4514 80.6613 42.2814 80.1663C44.1961 79.9701 44.8014 78.6813 45.3064 77.6763C47.1442 74.0189 44.1614 69.6813 42.3214 65.6763C40.4814 57.7113 40.8114 46.6713 41.4764 44.6763C41.8114 43.6713 42.1414 42.6813 43.4814 41.6613" stroke="black" stroke-width="16" stroke-linejoin="round"/>
<path d="M10.4814 33.6613C10.4814 31.6713 11.8014 27.6813 13.6414 23.6763C14.11 22.6563 14.8014 21.6813 15.1414 21.6663C15.4814 21.6513 15.4814 22.6413 15.8114 23.6463C16.1414 24.6513 16.8014 25.6413 18.4814 28.6613" stroke="black" stroke-width="16" stroke-linejoin="round"/>
<path d="M42.4814 29.6613C44.8014 28.3413 49.4614 25.0013 52.4764 22.6663C51.5014 23.6413 50.4814 25.9813 50.3164 28.4763C50.1514 29.6513 49.8214 30.6413 49.4814 32.6613" stroke="black" stroke-width="16" stroke-linejoin="round"/>
<path d="M11.4814 26.6613C11.4814 24.0113 12.1414 18.6813 13.3114 14.1813C13.6913 12.7203 13.4814 10.7013 13.1514 10.1763C9.61347 4.54771 11.8114 27.9813 12.3114 27.5063C21.6239 18.6595 13.4814 10.0213 13.6464 6.51629C13.782 3.63656 17.1414 13.6413 17.8114 17.6463C18.5759 22.2162 22.8014 25.6413 24.1464 29.6463C24.4664 30.599 23.8214 31.6413 21.6714 32.1513C15.7057 33.5664 10.4914 33.3213 8.99144 32.6713C0.731784 29.0921 9.48144 14.4013 10.3114 7.34629C10.4687 6.00973 10.4814 4.36129 10.6464 4.00629C12.0498 0.986976 14.1414 12.3013 14.6464 16.6463C15.1187 20.7101 16.1414 24.6413 16.6464 29.4763C16.8771 31.6851 18.1414 33.6513 19.6364 35.3163C22.9829 39.0433 30.4614 36.0013 34.4664 33.6713C38.627 31.2508 41.8014 27.6813 43.8064 23.8413C45.8624 19.9036 51.4614 18.6813 54.6364 14.6763C57.8114 10.6713 58.8114 7.67129 59.1464 6.66629C60.1414 3.68129 56.8214 13.6413 56.3164 20.9663C55.9844 25.7825 53.8214 29.6413 53.3164 35.3063C53.1961 36.656 52.8214 37.6413 52.9814 37.6563C56.3075 37.9681 55.1414 30.6813 55.8114 22.5263C56.2318 17.4093 58.1414 13.6813 59.4764 9.67629C59.8114 8.67129 60.1414 7.68129 60.3114 7.99629C62.5236 12.0952 59.4814 21.2613 58.6514 27.6463C58.4814 29.6413 57.8214 31.6513 56.8214 33.6463C56.4814 34.6513 56.4814 35.6413 56.4814 36.6613" stroke="black" stroke-width="7" stroke-linejoin="round"/>
<path d="M15.4814 40.6613C15.4814 41.3213 15.4814 42.9813 15.9764 45.1463C16.1947 46.101 17.4614 46.3213 18.4664 46.1613C19.4714 46.0013 20.4614 45.3413 21.1364 44.5063C21.8114 43.6713 22.1414 42.6813 21.8164 41.8413C21.4914 41.0013 20.5014 40.3413 19.4964 40.0013C18.4914 39.6613 17.5014 39.6613 16.6614 40.1563C15.8214 40.6513 15.1614 41.6413 14.8214 42.6463C14.4814 43.6513 14.4814 44.6413 14.9764 45.3163C15.4714 45.9913 16.4614 46.3213 18.4814 46.6613" stroke="white" stroke-width="7" stroke-linejoin="round"/>
<path d="M43.4814 37.6613C42.8214 38.9813 42.4814 41.3113 42.9764 43.9763C43.1827 45.0866 44.4614 45.3213 45.4664 45.4913C46.4714 45.6613 47.4614 45.6613 48.3014 45.1663C49.1414 44.6713 49.8014 43.6813 50.1414 42.6763C50.4814 41.6713 50.4814 40.6813 49.1614 40.1713C47.8414 39.6613 45.2014 39.6613 42.4814 40.6613" stroke="white" stroke-width="7" stroke-linejoin="round"/>
<path d="M19.4814 41.6613C18.8214 41.6613 17.8214 42.6513 16.4914 43.6563C15.9568 44.0603 15.1614 42.6813 14.8214 41.6763C14.4814 40.6713 14.4814 39.6813 14.9764 39.0063C15.4714 38.3313 16.4614 38.0013 17.4664 37.8313C18.4714 37.6613 19.4614 37.6613 19.9714 38.3213C20.4814 38.9813 20.4814 40.3013 20.4814 41.6613" stroke="white" stroke-width="7" stroke-linejoin="round"/>
<path d="M51.4885 40.1533C50.9175 39.8693 49.9621 38.7245 48.9106 38.1464C46.8099 36.9915 43.1711 38.0474 43.0248 38.3343C42.2662 39.8219 47.7358 38.145 49.8101 38.3831C50.1471 38.4218 50.5245 38.4319 50.7196 38.7159C50.9147 39 50.9147 39.568 50.82 40.0027C50.7253 40.4374 50.5359 40.7214 50.0539 41.5878" stroke="white" stroke-width="7" stroke-linejoin="round"/>
<path d="M17.3468 44.4569C18.2018 44.4569 19.9232 44.0782 21.3104 43.0267C22.5288 42.1031 22.7005 40.7329 22.656 38.9168C22.6459 38.5043 22.23 38.3401 21.9416 38.1952C21.3872 37.9166 19.6564 37.8581 17.3626 37.9528C15.3441 38.0361 14.1966 39.9582 13.6659 41.1044C13.5036 41.4548 13.6171 41.9608 13.7591 42.2994C13.9011 42.6379 14.1852 42.8273 14.4735 43.0195C14.7618 43.2117 15.0459 43.4011 15.6254 43.8831" stroke="white" stroke-width="7" stroke-linejoin="round"/>
<path d="M17.0599 40.4402C17.0599 40.6296 17.0599 41.2952 17.202 42.2032C17.2589 42.5673 17.628 42.6379 17.9164 42.6393C18.2047 42.6408 18.4887 42.5461 18.6824 42.3553C19.0781 41.9654 19.163 41.3038 19.3064 40.6367C19.3876 40.2593 19.3552 39.7803 19.0238 39.5365C18.6924 39.2926 18.0297 39.2926 17.5936 39.4346C17.1575 39.5766 16.9681 39.8607 16.8232 40.149C16.5447 40.7034 16.5808 41.3927 16.8663 42.0139C16.9951 42.2942 17.3411 42.351 17.6768 42.2104C18.0125 42.0698 18.3912 41.6911 18.5863 41.3067C18.7814 40.9222 18.7814 40.5435 18.6394 40.3957C18.4973 40.248 18.2133 40.3427 17.9723 40.5335C17.7313 40.7243 17.5419 41.0083 17.5864 41.202C17.6309 41.3956 17.9149 41.4903 18.2076 41.5878" stroke="black" stroke-width="7" stroke-linejoin="round"/>
<path d="M48.0456 39.0057C47.8563 39.0057 47.2853 39.0057 46.4734 39.1477C45.8051 39.2646 45.6557 40.1504 45.5122 40.8175C45.4311 41.195 45.4635 41.6739 45.6055 41.9651C46.1128 43.0054 47.9423 42.7354 49.0899 42.4514C49.5584 42.3354 49.4801 41.5993 49.3855 41.1646C48.6223 40.0586 47.8563 39.5824 47.3327 39.152C46.9984 39.0057 46.525 39.0057 46.0373 39.2926" stroke="black" stroke-width="7" stroke-linejoin="round"/>
<path d="M17.3468 39.5795C17.3468 39.7689 17.6309 40.5292 18.2033 41.5807C18.4347 42.0058 18.7756 42.0641 18.922 41.7342C19.0683 41.4042 19.0683 40.6468 18.9263 40.2093C18.7842 39.7717 18.5002 39.677 18.1645 39.6283C17.8288 39.5795 17.4501 39.5795 17.3024 39.7215C17.1546 39.8635 17.2493 40.1476 17.4874 40.2939C17.7256 40.4402 18.1043 40.4402 18.394 40.2982C18.6838 40.1562 18.8732 39.8721 19.0683 39.5795" stroke="black" stroke-width="4" stroke-linejoin="round"/>
<path d="M46.898 39.0057C46.5193 39.195 46.0402 39.5766 45.6571 40.149C45.4876 40.4024 45.6528 40.7214 45.8436 40.8203C46.2651 41.039 46.8951 40.5377 47.3728 40.3929C47.563 40.3352 47.6612 40.7214 47.8046 40.7257C47.9481 40.73 48.1374 40.4459 48.0456 40.347C47.9538 40.248 47.5751 40.3427 46.898 40.7271" stroke="black" stroke-width="4" stroke-linejoin="round"/>
<path d="M47.1849 40.1533C47.0902 41.6797 46.8033 42.7326 46.7545 43.0209C46.8005 43.0252 46.9898 42.7412 47.0874 42.3582C47.1849 41.9752 47.1849 41.5018 47.1849 41.014" stroke="black" stroke-width="4" stroke-linejoin="round"/>
<path d="M71.2849 185.327C72.4239 184.185 74.722 182.842 76.5367 182.365C78.881 181.748 80.3625 181.408 81.8946 180.787C83.5789 180.104 85.0506 178.636 86.7232 177.109C88.4511 175.53 90.5936 170.827 91.6522 167.309C92.5378 164.367 92.4183 162.575 92.5632 160.993C92.7121 159.366 93.3765 156.367 93.6147 153.538C93.7149 152.348 93.7581 151.191 93.9016 147.017C94.0254 143.412 93.9503 136.783 93.9977 133.085C94.0829 126.43 94.4266 121.835 94.5715 120.205C94.7171 118.568 95.0004 116.481 96.0505 111.659C96.5384 109.418 97.0087 107.3 97.9154 104.955C99.0071 102.131 100.543 99.6458 101.645 98.3519C103.235 96.485 105.421 94.2864 106.379 93.1876C107.605 91.7819 108.577 90.8436 109.775 89.838C110.474 89.251 109.064 92.0773 108.298 93.2263C107.459 94.4848 106.293 95.9964 105.382 97.5285C104.378 99.2165 103.137 100.684 102.226 102.119C101.201 103.733 100.268 105.464 99.5952 106.758C98.8037 108.28 98.3515 109.578 97.7303 110.966C97.1734 112.209 96.5382 114.542 95.8654 117.224C95.046 120.492 94.6217 122.581 94.286 124.209C93.9982 125.605 94.1426 126.796 93.9991 129.924C93.8688 132.766 93.9503 138.166 93.903 141.135C93.8496 144.486 93.6634 148.092 93.5688 153.159C93.5086 156.379 92.9003 158.065 92.3265 160.262C92.1342 162.085 91.942 163.892 91.942 165.473C91.942 165.823 91.942 165.255 91.942 164.67" stroke="black" stroke-width="4" stroke-linejoin="round"/>
<path d="M100.262 104.42C100.168 105.086 99.786 106.612 99.3556 108.477C98.8513 110.662 98.5408 112.539 98.3027 114.169C98.0802 115.692 97.7776 117.038 97.6328 119.378C97.5385 120.899 96.9169 122.392 96.5812 123.686C96.2307 125.037 96.2456 127.166 96.0074 129.891C95.6733 133.716 95.864 136.55 95.7205 139.111C95.3549 145.638 95.5771 150.322 95.3863 150.941C94.8869 152.564 94.9086 154.525 94.5729 157.57C93.4496 167.762 94.0479 168.968 93.4267 170.355C92.9064 171.517 92.6134 172.697 91.9922 173.847C91.3711 174.996 90.605 176.14 89.8892 177.242C89.1505 178.379 88.3098 179.296 87.3558 180.731C86.3772 182.202 85.062 182.837 83.913 183.555C82.8723 184.206 81.6192 184.558 80.4701 185.086C79.2393 185.651 78.1763 186.566 76.9799 187.189C75.4075 188.007 74.7306 188.578 74.2056 188.532C72.779 188.407 73.3908 185.717 73.4826 184.232C73.5859 182.561 76.3459 182.653 77.9253 182.172C79.5934 181.665 80.9363 180.932 82.1829 180.213C83.2779 179.582 84.4767 178.923 85.1036 178.203C85.4546 177.8 84.1984 179.299 83.5787 179.777C82.3438 180.729 79.2436 180.45 76.4104 180.926C75.7876 181.031 75.1237 181.023 75.161 180.834C75.5989 178.611 78.6411 179.113 79.935 178.253C81.1591 177.44 83.0365 177.581 84.4782 177.057C85.7059 176.611 86.772 175.48 87.5882 174.429C88.3633 173.431 88.6885 172.135 89.5478 170.939C90.405 169.745 90.4099 168.405 90.7929 167.256C91.2259 165.957 91.2706 164.389 91.6063 163.145C92.0322 161.567 92.1314 160.372 92.5144 158.938C92.9406 157.341 93.1814 155.213 93.6147 153.486C93.9661 152.085 93.9503 146.738 94.2358 143.396C94.374 141.778 94.811 139.342 95.0492 136.329C95.5212 130.359 95.5742 128.434 95.7191 126.328C95.8333 124.668 96.4349 123.172 96.8179 121.878C96.917 121.543 97.0087 121.164 97.0102 120.827C97.0116 120.489 96.9169 120.205 96.8682 120.674C96.6923 122.366 96.9141 123.927 97.0575 127.481C97.1894 130.75 97.1063 137.001 97.0589 140.362C96.998 144.691 96.3431 146.394 96.0074 148.356C95.6578 150.4 95.3849 151.943 95.0994 153.522C94.777 155.306 94.3348 157.01 93.9518 158.354C93.5951 159.605 93.3765 161.313 93.662 162.705C93.8106 163.429 93.9503 165.04 94.045 166.763C94.1267 168.25 94.3348 162.093 94.2846 158.325C94.2606 156.529 94.7135 155.018 95.0492 153.344C95.4926 151.133 95.5742 149.567 95.7191 147.13C95.7508 146.597 95.8611 146.314 95.9572 146.025C96.0533 145.737 96.148 145.453 96.1968 145.969C96.5254 149.449 96.5325 153.636 96.2943 156.44C96.1561 158.069 95.9587 159.781 95.6732 161.223C95.4252 162.475 95.1955 163.803 95.0506 165.191C94.9086 165.812 94.811 166.767 94.7164 167.913C94.6217 168.397 94.4323 168.681 93.9503 169.547" stroke="black" stroke-width="4" stroke-linejoin="round"/>
<path d="M42.0206 24.3736C41.8313 24.3736 41.355 24.3736 40.6865 24.5156C39.3921 24.7906 38.8704 26.4737 37.7199 27.4793C37.0336 28.0792 39.2434 25.8138 40.0568 24.6648C40.2734 24.3588 40.5804 24.0924 40.5847 24.0407C39.8229 24.6576 39.0598 25.8023 38.0556 26.7133C37.8146 26.9528 37.6252 27.2369 37.1432 27.8164" stroke="black" stroke-width="4" stroke-linejoin="round"/>
</svg>
